<?xml version="1.0" encoding="UTF-8"?>
<svg width="82px" height="82px" viewBox="0 0 82 82" version="1.1" xmlns="http://www.w3.org/2000/svg" xmlns:xlink="http://www.w3.org/1999/xlink">
    <!-- Generator: Sketch 48.2 (47327) - http://www.bohemiancoding.com/sketch -->
    <title>analytics</title>
    <desc>Created with Sketch.</desc>
    <defs></defs>
    <g id="Landing-page" stroke="none" stroke-width="1" fill="none" fill-rule="evenodd" transform="translate(-999.000000, -3981.000000)">
        <g id="What-we-do" transform="translate(30.000000, 3586.000000)" fill="#FFFFFF" fill-rule="nonzero" stroke="#FFFFFF">
            <g id="Group-3" transform="translate(220.000000, 343.000000)">
                <g id="3" transform="translate(640.000000, 0.000000)">
                    <g id="Group-8" transform="translate(50.000000, 0.000000)">
                        <g id="analytics" transform="translate(60.000000, 53.000000)">
                            <path d="M78.3331283,77 L1.66671549,77 C0.746717292,77 0,77.6719167 0,78.4999297 C0,79.3279426 0.746717292,80 1.66671549,80 L78.3332845,80 C79.2532827,80 80,79.3279426 80,78.4999297 C79.9998438,77.6719167 79.2531265,77 78.3331283,77 Z" id="Shape"></path>
                            <path d="M14.3749619,57 L4.62503809,57 C3.72804509,57 3,57.736053 3,58.6429121 L3,78.3572419 C3,79.263947 3.72804509,80 4.62503809,80 L14.3749619,80 C15.2719549,80 16,79.263947 16,78.3570879 L16,58.6427581 C16,57.735899 15.2719549,57 14.3749619,57 Z M12.7499238,76.7143297 L6.25007617,76.7143297 L6.25007617,60.2856703 L12.7500762,60.2856703 L12.7500762,76.7143297 L12.7499238,76.7143297 Z" id="Shape"></path>
                            <path d="M34.3749619,40 L24.6250381,40 C23.7280451,40 23,40.7467158 23,41.6667122 L23,78.3332878 C23,79.2532842 23.7280451,80 24.6250381,80 L34.3749619,80 C35.2719549,80 36,79.2532842 36,78.3332878 L36,41.6667122 C36,40.7467158 35.2719549,40 34.3749619,40 Z M32.7499238,76.6665755 L26.2499238,76.6665755 L26.2499238,43.3332682 L32.7499238,43.3332682 L32.7499238,76.6665755 Z" id="Shape"></path>
                            <path d="M54.3749619,47 L44.6250381,47 C43.7280451,47 43,47.7392493 43,48.6500464 L43,78.3499536 C43,79.2607507 43.7280451,80 44.6250381,80 L54.3749619,80 C55.2719549,80 56,79.2607507 56,78.3499536 L56,48.6500464 C56,47.7390946 55.2719549,47 54.3749619,47 Z M52.7499238,76.6999072 L46.2499238,76.6999072 L46.2499238,50.2999381 L52.7499238,50.2999381 L52.7499238,76.6999072 Z" id="Shape"></path>
                            <path d="M74.3749619,27 L64.6250381,27 C63.7280451,27 63,27.7420503 63,28.6562985 L63,78.3437015 C63,79.2579497 63.7280451,80 64.6250381,80 L74.3749619,80 C75.2719549,80 76,79.2579497 76,78.3437015 L76,28.6562985 C76,27.741895 75.2719549,27 74.3749619,27 Z M72.7499238,76.687403 L66.2499238,76.687403 L66.2499238,30.3124418 L72.7499238,30.3124418 L72.7499238,76.687403 Z" id="Shape"></path>
                            <path d="M9.5,30 C5.91522722,30 3,32.9152272 3,36.5 C3,40.0847728 5.91522722,43 9.5,43 C13.0847728,43 16,40.0847728 16,36.5 C16,32.9152272 13.0847728,30 9.5,30 Z M9.5,39.7499238 C7.70601402,39.7499238 6.25007617,38.2906344 6.25007617,36.5 C6.25007617,34.7092132 7.70601402,33.2500762 9.5,33.2500762 C11.293986,33.2500762 12.7499238,34.7093656 12.7499238,36.5 C12.7499238,38.2906344 11.293986,39.7499238 9.5,39.7499238 Z" id="Shape"></path>
                            <path d="M29.5,13 C25.9152272,13 23,15.9152272 23,19.5 C23,23.0847728 25.9152272,26 29.5,26 C33.0847728,26 36,23.0847728 36,19.5 C36,15.9152272 33.0847728,13 29.5,13 Z M29.5,22.7499238 C27.706014,22.7499238 26.2500762,21.2906344 26.2500762,19.5 C26.2500762,17.7092132 27.706014,16.2500762 29.5,16.2500762 C31.293986,16.2500762 32.7499238,17.7093656 32.7499238,19.5 C32.7499238,21.2907868 31.293986,22.7499238 29.5,22.7499238 Z" id="Shape"></path>
                            <path d="M49.5,20 C45.9152272,20 43,22.9152272 43,26.5 C43,30.0847728 45.9152272,33 49.5,33 C53.0847728,33 56,30.0847728 56,26.5 C56,22.9152272 53.0847728,20 49.5,20 Z M49.5,29.7499238 C47.706014,29.7499238 46.2500762,28.2906344 46.2500762,26.5 C46.2500762,24.7092132 47.706014,23.2500762 49.5,23.2500762 C51.293986,23.2500762 52.7499238,24.7093656 52.7499238,26.5 C52.7499238,28.2906344 51.293986,29.7499238 49.5,29.7499238 Z" id="Shape"></path>
                            <path d="M69.5,0 C65.9152272,0 63,2.91522722 63,6.5 C63,10.0847728 65.9152272,13 69.5,13 C73.0847728,13 76,10.0847728 76,6.5 C76,2.91522722 73.0847728,0 69.5,0 Z M69.5,9.74992383 C67.706014,9.74992383 66.2500762,8.29063445 66.2500762,6.5 C66.2500762,4.70921321 67.706014,3.25007617 69.5,3.25007617 C71.293986,3.25007617 72.7499238,4.70936555 72.7499238,6.5 C72.7499238,8.29063445 71.293986,9.74992383 69.5,9.74992383 Z" id="Shape"></path>
                            <path d="M68.4904703,9.50955414 C67.8110974,8.83014862 66.7066266,8.83014862 66.0272537,9.50955414 L52.5095297,23.0279275 C51.8301568,23.707333 51.8301568,24.8118569 52.5095297,25.4912625 C52.8510125,25.8291687 53.296851,26 53.7428528,26 C54.1852617,26 54.6312634,25.8327617 54.9727463,25.4912625 L68.4904703,11.9728891 C69.1698432,11.2934836 69.1698432,10.1889597 68.4904703,9.50955414 Z" id="Shape"></path>
                            <path d="M45.7921085,22.9297379 L35.115443,20.0629569 C34.2212413,19.8188382 33.3137956,20.3070756 33.0644974,21.1396318 C32.8119271,21.9721881 33.3237676,22.8359927 34.2045695,23.0738031 L44.881235,25.9405841 C45.034086,25.9812216 45.1870928,26 45.3366718,26 C46.0613507,26 46.7260422,25.5524001 46.9354527,24.8639091 C47.1881788,24.0345804 46.6763383,23.1675482 45.7921085,22.9297379 Z" id="Shape"></path>
                            <path d="M27.6325017,22.6112545 C27.0556303,21.9101856 26.0023564,21.7965357 25.2778473,22.3515486 L12.6324283,32.1080908 C11.9079193,32.6696458 11.7871677,33.6886908 12.3674983,34.3897597 C12.6995649,34.7921745 13.1893318,35 13.6789414,35 C14.0444977,35 14.4135131,34.8831552 14.7221527,34.6494656 L27.3675717,24.8929234 C28.0920807,24.3313684 28.2128323,23.3123234 27.6325017,22.6112545 Z" id="Shape"></path>
                        </g>
                    </g>
                </g>
            </g>
        </g>
    </g>
</svg>