<?xml version="1.0" encoding="UTF-8"?>
<svg width="230px" height="211px" viewBox="0 0 230 211" version="1.1" xmlns="http://www.w3.org/2000/svg" xmlns:xlink="http://www.w3.org/1999/xlink">
    <!-- Generator: Sketch 48.2 (47327) - http://www.bohemiancoding.com/sketch -->
    <title>icon_blocks</title>
    <desc>Created with Sketch.</desc>
    <defs></defs>
    <g id="Landing-page" stroke="none" stroke-width="1" fill="none" fill-rule="evenodd" transform="translate(-326.000000, -2432.000000)">
        <g id="How-it-works-Copy" transform="translate(250.000000, 1909.000000)" fill-rule="nonzero">
            <g id="2" transform="translate(76.000000, 523.000000)">
                <g id="icon_blocks">
                    <g id="four-blocks-cube" transform="translate(62.000000, 0.000000)" fill="#27D694">
                        <path d="M106.876602,21.1559054 L106.956148,20.9593134 L54.7574378,0 L30.1976282,9.52831035 L30.0400661,9.46021991 L29.9707183,9.618415 L0.182547739,21.1763837 L0.00764864826,21.1070134 L0.00764864826,21.2414024 L0,21.2444741 L0.00764864826,21.2670003 L0.00764864826,88.4881381 L51.5937019,108.918599 L51.5937019,109 L55.4162413,109 L55.4162413,108.918599 L107,88.4881381 L107,21.1082933 L106.876602,21.1559054 Z M103.179755,56.0970537 L81.4823247,64.0828339 L81.4823247,35.3384279 L103.179755,26.7444413 L103.179755,56.0970537 Z M51.5952316,45.6618093 L51.5952316,73.699713 L29.4985418,65.674512 L29.4985418,36.9080918 L51.5952316,45.6618093 Z M32.060329,33.8017853 L54.2663946,24.5322698 L74.9391611,33.8061369 L53.5040793,42.2951721 L32.060329,33.8017853 Z M55.4162413,45.6618093 L77.6620799,36.8504965 L77.6620799,65.4899511 L55.4162413,73.6815385 L55.4162413,45.6618093 Z M79.913587,31.8343299 L59.118952,22.5056832 L79.4253482,14.0258633 L102.016396,23.0806123 L79.913587,31.8343299 Z M54.711036,4.12075169 L74.3471557,11.9900614 L54.3207,20.351875 L35.1190235,11.737666 L54.711036,4.12075169 Z M30.1004904,13.6884828 L49.4689074,22.3771817 L26.9553662,31.7769905 L5.46138981,23.2644053 L30.1004904,13.6884828 Z M25.6782969,35.397559 L25.6782969,64.2858253 L3.83171782,56.3543127 L3.83171782,26.7444413 L25.6782969,35.397559 Z M3.83146287,60.4335957 L25.6780419,68.36946 L25.6780419,94.5266852 L3.83146287,85.8766392 L3.83146287,60.4335957 Z M29.497012,96.0413136 L29.497012,69.7568668 L51.5937019,77.7820678 L51.5937019,104.791192 L29.497012,96.0413136 Z M55.4162413,77.7697808 L77.6620799,69.5784494 L77.6620799,95.9809025 L55.4162413,104.791192 L55.4162413,77.7697808 Z M81.4838544,94.4675541 L81.4838544,68.1710762 L103.179755,60.1824802 L103.179755,85.8766392 L81.4838544,94.4675541 Z" id="Shape"></path>
                    </g>
                    <g id="four-blocks-cube-copy" transform="translate(0.000000, 102.000000)" fill="#CCCCCC">
                        <path d="M106.876602,21.1559054 L106.956148,20.9593134 L54.7574378,0 L30.1976282,9.52831035 L30.0400661,9.46021991 L29.9707183,9.618415 L0.182547739,21.1763837 L0.00764864826,21.1070134 L0.00764864826,21.2414024 L0,21.2444741 L0.00764864826,21.2670003 L0.00764864826,88.4881381 L51.5937019,108.918599 L51.5937019,109 L55.4162413,109 L55.4162413,108.918599 L107,88.4881381 L107,21.1082933 L106.876602,21.1559054 Z M103.179755,56.0970537 L81.4823247,64.0828339 L81.4823247,35.3384279 L103.179755,26.7444413 L103.179755,56.0970537 Z M51.5952316,45.6618093 L51.5952316,73.699713 L29.4985418,65.674512 L29.4985418,36.9080918 L51.5952316,45.6618093 Z M32.060329,33.8017853 L54.2663946,24.5322698 L74.9391611,33.8061369 L53.5040793,42.2951721 L32.060329,33.8017853 Z M55.4162413,45.6618093 L77.6620799,36.8504965 L77.6620799,65.4899511 L55.4162413,73.6815385 L55.4162413,45.6618093 Z M79.913587,31.8343299 L59.118952,22.5056832 L79.4253482,14.0258633 L102.016396,23.0806123 L79.913587,31.8343299 Z M54.711036,4.12075169 L74.3471557,11.9900614 L54.3207,20.351875 L35.1190235,11.737666 L54.711036,4.12075169 Z M30.1004904,13.6884828 L49.4689074,22.3771817 L26.9553662,31.7769905 L5.46138981,23.2644053 L30.1004904,13.6884828 Z M25.6782969,35.397559 L25.6782969,64.2858253 L3.83171782,56.3543127 L3.83171782,26.7444413 L25.6782969,35.397559 Z M3.83146287,60.4335957 L25.6780419,68.36946 L25.6780419,94.5266852 L3.83146287,85.8766392 L3.83146287,60.4335957 Z M29.497012,96.0413136 L29.497012,69.7568668 L51.5937019,77.7820678 L51.5937019,104.791192 L29.497012,96.0413136 Z M55.4162413,77.7697808 L77.6620799,69.5784494 L77.6620799,95.9809025 L55.4162413,104.791192 L55.4162413,77.7697808 Z M81.4838544,94.4675541 L81.4838544,68.1710762 L103.179755,60.1824802 L103.179755,85.8766392 L81.4838544,94.4675541 Z" id="Shape"></path>
                    </g>
                    <g id="four-blocks-cube-copy-2" transform="translate(123.000000, 102.000000)" fill="#CCCCCC">
                        <path d="M106.876602,21.1559054 L106.956148,20.9593134 L54.7574378,0 L30.1976282,9.52831035 L30.0400661,9.46021991 L29.9707183,9.618415 L0.182547739,21.1763837 L0.00764864826,21.1070134 L0.00764864826,21.2414024 L0,21.2444741 L0.00764864826,21.2670003 L0.00764864826,88.4881381 L51.5937019,108.918599 L51.5937019,109 L55.4162413,109 L55.4162413,108.918599 L107,88.4881381 L107,21.1082933 L106.876602,21.1559054 Z M103.179755,56.0970537 L81.4823247,64.0828339 L81.4823247,35.3384279 L103.179755,26.7444413 L103.179755,56.0970537 Z M51.5952316,45.6618093 L51.5952316,73.699713 L29.4985418,65.674512 L29.4985418,36.9080918 L51.5952316,45.6618093 Z M32.060329,33.8017853 L54.2663946,24.5322698 L74.9391611,33.8061369 L53.5040793,42.2951721 L32.060329,33.8017853 Z M55.4162413,45.6618093 L77.6620799,36.8504965 L77.6620799,65.4899511 L55.4162413,73.6815385 L55.4162413,45.6618093 Z M79.913587,31.8343299 L59.118952,22.5056832 L79.4253482,14.0258633 L102.016396,23.0806123 L79.913587,31.8343299 Z M54.711036,4.12075169 L74.3471557,11.9900614 L54.3207,20.351875 L35.1190235,11.737666 L54.711036,4.12075169 Z M30.1004904,13.6884828 L49.4689074,22.3771817 L26.9553662,31.7769905 L5.46138981,23.2644053 L30.1004904,13.6884828 Z M25.6782969,35.397559 L25.6782969,64.2858253 L3.83171782,56.3543127 L3.83171782,26.7444413 L25.6782969,35.397559 Z M3.83146287,60.4335957 L25.6780419,68.36946 L25.6780419,94.5266852 L3.83146287,85.8766392 L3.83146287,60.4335957 Z M29.497012,96.0413136 L29.497012,69.7568668 L51.5937019,77.7820678 L51.5937019,104.791192 L29.497012,96.0413136 Z M55.4162413,77.7697808 L77.6620799,69.5784494 L77.6620799,95.9809025 L55.4162413,104.791192 L55.4162413,77.7697808 Z M81.4838544,94.4675541 L81.4838544,68.1710762 L103.179755,60.1824802 L103.179755,85.8766392 L81.4838544,94.4675541 Z" id="Shape"></path>
                    </g>
                </g>
            </g>
        </g>
    </g>
</svg>