<?xml version="1.0" encoding="UTF-8"?>
<svg width="86px" height="86px" viewBox="0 0 86 86" version="1.1" xmlns="http://www.w3.org/2000/svg" xmlns:xlink="http://www.w3.org/1999/xlink">
    <!-- Generator: Sketch 48.2 (47327) - http://www.bohemiancoding.com/sketch -->
    <title>invest</title>
    <desc>Created with Sketch.</desc>
    <defs></defs>
    <g id="Landing-page" stroke="none" stroke-width="1" fill="none" fill-rule="evenodd" transform="translate(-357.000000, -3981.000000)">
        <g id="What-we-do" transform="translate(30.000000, 3586.000000)" fill="#FFFFFF" fill-rule="nonzero">
            <g id="Group-3" transform="translate(220.000000, 343.000000)">
                <g id="1">
                    <g id="Group-2" transform="translate(50.000000, 0.000000)">
                        <g id="invest" transform="translate(57.000000, 52.000000)">
                            <path d="M52,0 C39.8691,0 30,9.86909996 30,22 C30,34.1309 39.8692659,44 52,44 C64.1309,44 74,34.1309 74,22 C74,9.86909996 64.1309,0 52,0 Z M52,38.953961 C42.6515139,38.953961 35.046039,31.3484861 35.046039,22 C35.046039,12.6515139 42.6516798,5.04603899 52,5.04603899 C61.3484861,5.04603899 68.953961,12.6515139 68.953961,22 C68.9537951,31.348652 61.3484861,38.953961 52,38.953961 Z" id="Shape"></path>
                            <path d="M54.4506486,19.620586 L54.4506486,14.413798 C54.7685924,14.5249768 55.0449601,14.6609189 55.2710499,14.8205997 C55.6803642,15.1099036 56.0985416,15.5631579 56.0985416,16.7316453 L61,16.7316453 C61,12.6407439 58.5478205,9.85649226 54.4508098,9.0840473 L54.4508098,7 L49.5493514,7 L49.5493514,9.0840473 C45.4523407,9.85666304 43.0001611,12.6409147 43.0001611,16.7316453 C43.0001611,20.8223758 45.4523407,23.6067982 49.5493514,24.3792432 L49.5493514,29.5860312 C49.2312465,29.4750232 48.9548787,29.3390811 48.7289501,29.1795711 C48.3196358,28.8902672 47.9014584,28.4370129 47.9014584,27.2683547 L43,27.2683547 C43,31.3592561 45.4521795,34.1435077 49.5491902,34.9159527 L49.5491902,37 L54.4506486,37 L54.4506486,34.9159527 C58.5476593,34.143337 60.9998389,31.3590853 60.9998389,27.2683547 C61,23.1774534 58.5478205,20.393031 54.4506486,19.620586 Z M49.5493514,19.0494925 C49.2312465,18.9381429 48.9548787,18.8023716 48.7289501,18.6425201 C48.3196358,18.3532161 47.9014584,17.8999619 47.9014584,16.7314745 C47.9014584,15.5629871 48.319797,15.1097328 48.7289501,14.8204289 C48.9548787,14.6607481 49.2312465,14.524806 49.5493514,14.4136272 L49.5493514,19.0494925 Z M55.2708887,29.1795711 C55.0449601,29.3392519 54.7685924,29.475194 54.4504875,29.5863728 L54.4504875,24.9506783 C54.7684312,25.0618571 55.044799,25.1976284 55.2708887,25.3574799 C55.680203,25.6466131 56.0983805,26.1000381 56.0983805,27.2685255 C56.0983805,28.4370129 55.6800419,28.8900964 55.2708887,29.1795711 Z" id="Shape"></path>
                            <path d="M83.1536798,55.4079854 L62.7833294,60.4190375 L62.7833294,52.9807517 L39.2379204,47 L15.0377249,50.8078402 L0,50.8078402 L0,86 L17.7268223,86 L17.7268223,78.7326268 L30.1581808,77.3182472 L54.2450415,84.177272 L86,66.4233281 L83.1536798,55.4079854 Z M12.6122908,79.314276 L12.6122908,80.8118945 L5.11453152,80.8118945 L5.11453152,55.9959456 L12.6122908,55.9959456 L12.6122908,79.314276 Z M53.6106014,78.6077684 L30.5797396,72.0494614 L17.7266542,73.5119422 L17.7266542,55.6350162 L38.9993117,52.2875487 L57.6687979,57.0297801 L57.6687979,60.4142615 L43.34589,56.8708073 L42.1340138,61.9111978 L60.224214,66.3866552 L79.4790396,61.6500527 L80.042351,63.8302988 L53.6106014,78.6077684 Z" id="Shape"></path>
                        </g>
                    </g>
                </g>
            </g>
        </g>
    </g>
</svg>