<?xml version="1.0" encoding="UTF-8"?>
<svg width="76px" height="76px" viewBox="0 0 76 76" version="1.1" xmlns="http://www.w3.org/2000/svg" xmlns:xlink="http://www.w3.org/1999/xlink">
    <!-- Generator: Sketch 48.2 (47327) - http://www.bohemiancoding.com/sketch -->
    <title>technics copy</title>
    <desc>Created with Sketch.</desc>
    <defs></defs>
    <g id="Landing-page" stroke="none" stroke-width="1" fill="none" fill-rule="evenodd" transform="translate(-684.000000, -3992.000000)">
        <g id="What-we-do" transform="translate(30.000000, 3586.000000)" fill="#FFFFFF" fill-rule="nonzero">
            <g id="Group-3" transform="translate(220.000000, 343.000000)">
                <g id="2" transform="translate(320.000000, 0.000000)">
                    <g id="Group-7" transform="translate(50.000000, 0.000000)">
                        <g id="technics-copy" transform="translate(64.000000, 63.000000)">
                            <path d="M72.7405867,57.0587333 C65.9385763,50.2554365 66.3846316,50.6864327 66.193147,50.5450932 L48.1880959,37.2490901 L55.1728332,30.2636257 C60.7885293,32.2650932 67.1465625,30.8813919 71.4255769,26.6015683 C76.0874121,21.9388514 77.3111328,14.810266 74.4706284,8.86317147 C73.8085961,7.47754017 71.9725699,7.16368346 70.8882323,8.24852306 L65.1301844,14.0076599 C64.2624174,14.875591 62.8506262,14.8757394 61.9822655,14.0076599 C61.112272,13.1375019 61.112272,11.7294522 61.9822655,10.8592942 L67.7404618,5.10000885 C68.8261354,4.01427845 68.5104083,2.17835037 67.1259296,1.5170837 C61.1799596,-1.32395784 54.0528705,-0.10000579 49.3908868,4.56256265 C45.1108334,8.84342552 43.7290266,15.2029581 45.7295218,20.8182315 L37.6741032,28.8744312 C36.0340148,27.5985161 38.1982369,29.7778456 22.7510647,13.3952385 L24.3703719,11.7756251 C25.3945922,10.7513595 25.1811388,9.0362826 23.9416838,8.29246894 L12.0200561,1.13805051 C8.89499662,-0.737369468 4.91285771,-0.247135397 2.33583032,2.33037935 C-0.241048633,4.90774564 -0.731338448,8.89093458 1.14372693,12.0164366 L8.29679258,23.9404673 C9.0416531,25.1825322 10.7571479,25.391572 11.7792901,24.3692365 L13.3064174,22.8418204 C28.6735816,39.1396536 26.6509692,36.92588 27.8657835,38.4881856 C27.8945804,38.5251536 27.926643,38.5578161 27.9572212,38.5925571 L20.8142493,45.736286 C15.2003344,43.7354124 8.84155904,45.1174805 4.56180248,49.3983434 C-0.100032792,54.0610603 -1.32375342,61.1894972 1.51689937,67.1367402 C2.17908008,68.52252 4.01466102,68.8360798 5.09929549,67.7513886 L10.8573434,61.9921033 C11.7255556,61.1240238 13.1373469,61.1243207 14.0052623,61.9921033 C14.8752558,62.8622614 14.8752558,64.270311 14.0052623,65.1404691 L8.2469175,70.8997544 C7.16124396,71.9854848 7.47711945,73.8214129 8.8614497,74.482828 C10.9986561,75.5039758 13.2878627,76 15.5610381,76 C19.6119037,75.9998515 23.6102223,74.4240355 26.5964925,71.437349 C30.8765459,67.1564862 32.2583528,60.7969536 30.2578575,55.1815317 L36.3580544,49.0806266 L50.5611699,66.3442298 C50.6692325,66.4751766 50.3126851,66.1102477 56.6650777,72.4638416 C58.977589,74.7767903 62.0520312,75.9758001 65.0752624,75.9758001 C67.2935158,75.9758001 69.4843083,75.3296769 71.3244908,74.0043227 C76.9400384,69.9590751 77.6020707,61.9206913 72.7405867,57.0587333 Z M14.9726309,18.1192718 C14.1097624,17.204277 12.6632368,17.1882427 11.7792901,18.072505 L10.6471556,19.2047052 L4.96095153,9.72560931 C4.13890339,8.35526997 4.35369279,6.60886677 5.48360077,5.4787451 C6.61350875,4.34847497 8.35958174,4.13379342 9.72951353,4.95599702 L19.2068171,10.6434249 L18.0746826,11.7754766 C17.2233922,12.626928 17.2032047,14.0011274 18.0292606,14.8770756 C35.7782566,33.7009059 32.9862914,30.8683269 34.5015437,32.0471454 L31.1235463,35.4254846 C29.9560836,33.9239015 32.6668534,36.8850519 14.9726309,18.1192718 Z M26.0589995,53.0841553 C25.3919204,53.7513606 25.2178029,54.7665698 25.6245223,55.6180211 C27.6535176,59.8659246 26.7789225,64.9578561 23.4487221,68.2886864 C21.3150782,70.4227338 18.4591363,71.5486984 15.5648975,71.5484015 C15.0443264,71.5484015 14.5227162,71.5120273 14.0036295,71.4383883 L17.1528843,68.2885379 C19.762568,65.6785091 19.7630133,61.4536179 17.1528843,58.8432922 C14.549435,56.239202 10.3128738,56.2393505 7.70942449,58.8432922 L4.56016966,61.9931426 C4.07804393,58.5880795 5.19221751,55.0642437 7.70942449,52.5465607 C11.0397733,49.2154335 16.1305937,48.3411184 20.3776939,50.3702005 C21.2288358,50.7768483 22.2437046,50.6029949 22.9110806,49.9356411 L49.9282314,22.915311 C50.5953106,22.2481057 50.769428,21.2328965 50.3628571,20.3814452 C48.3338618,16.1336902 49.2084569,11.0416102 52.5386573,7.71077994 C55.0563096,5.19279997 58.5791822,4.07856415 61.983453,4.56092953 L58.8341982,7.71077994 C57.5729228,8.97214537 56.8782342,10.649512 56.8782342,12.433477 C56.8782342,14.2174421 57.5729228,15.8945118 58.8341982,17.1561741 C61.4376475,19.7602642 65.6742087,19.7601158 68.277658,17.1561741 L71.4269128,14.0063237 C71.9090385,17.4113868 70.794865,20.9352226 68.277658,23.4529056 C64.9473091,26.7838843 59.8563404,27.6584963 55.6092401,25.6292658 C54.7583951,25.222618 53.7432294,25.3966199 53.0760019,26.0638252 L26.0589995,53.0841553 Z M39.511317,45.9269161 L45.0048489,40.4327907 L50.6037715,44.5672663 L43.9144253,51.2578775 C39.3662933,45.7299019 39.6501063,46.0630592 39.511317,45.9269161 Z M68.7226743,70.3914075 C66.1264984,72.2614827 62.2959144,71.7993087 59.8125512,69.3154758 L53.9298157,63.4317762 L46.7561172,54.7122313 L54.2252067,47.2417292 L63.4149865,54.0279524 L69.5926678,60.2069505 C72.4163987,63.0312155 72.2350078,67.8612533 68.7226743,70.3914075 Z" id="Shape"></path>
                            <path d="M66.3653955,63.3013581 L57.6986807,54.6346071 C56.8526859,53.7884643 55.4807438,53.7884643 54.6346045,54.6346071 C53.7884652,55.48075 53.7884652,56.8525533 54.6346045,57.6986961 L63.3013193,66.3654471 C64.1473141,67.2114454 65.5192562,67.2115899 66.3653955,66.3654471 C67.2115348,65.5193042 67.2115348,64.1475009 66.3653955,63.3013581 Z" id="Shape"></path>
                        </g>
                    </g>
                </g>
            </g>
        </g>
    </g>
</svg>