<?xml version="1.0" encoding="UTF-8"?>
<svg width="73px" height="58px" viewBox="0 0 73 58" version="1.1" xmlns="http://www.w3.org/2000/svg" xmlns:xlink="http://www.w3.org/1999/xlink">
    <!-- Generator: Sketch 48.2 (47327) - http://www.bohemiancoding.com/sketch -->
    <title>television</title>
    <desc>Created with Sketch.</desc>
    <defs></defs>
    <g id="Landing-page" stroke="none" stroke-width="1" fill="none" fill-rule="evenodd" transform="translate(-302.000000, -7746.000000)">
        <g id="Benefits" transform="translate(30.000000, 6984.000000)" fill-rule="nonzero">
            <g id="3" transform="translate(220.000000, 703.000000)">
                <g id="Group-12">
                    <g id="television" transform="translate(52.000000, 59.000000)">
                        <path d="M71.7833333,0 L1.21666667,0 C0.54385,0 0,0.540125 0,1.20833333 L0,47.125 C0,47.7932083 0.54385,48.3333333 1.21666667,48.3333333 L32.85,48.3333333 L32.85,51.9583333 L26.7666667,51.9583333 L26.7666667,58 L46.2333333,58 L46.2333333,51.9583333 L40.15,51.9583333 L40.15,48.3333333 L71.7833333,48.3333333 C72.45615,48.3333333 73,47.7932083 73,47.125 L73,1.20833333 C73,0.540125 72.45615,0 71.7833333,0 Z M43.8,54.375 L43.8,55.5833333 L29.2,55.5833333 L29.2,54.375 L35.2833333,54.375 L35.2833333,48.3333333 L37.7166667,48.3333333 L37.7166667,54.375 L43.8,54.375 Z M70.5666667,45.9166667 L40.15,45.9166667 L32.85,45.9166667 L2.43333333,45.9166667 L2.43333333,2.41666667 L70.5666667,2.41666667 L70.5666667,45.9166667 Z" id="Shape" fill="#FFFFFF"></path>
                        <path d="M67,34.46875 L51.602439,34.46875 L51.4987805,34.3773437 C51.0682927,33.9970937 50.6085366,33.6814375 50.1268293,33.4328125 L44.4914634,29.7899687 L44.3743902,29.7229375 C43.947561,29.5096562 43.4743902,29.4109375 43.0573171,29.3231875 C42.9243902,29.296375 42.7512195,29.2585937 42.6097561,29.2220313 L42.6097561,27.6352187 C42.6646341,27.5986562 42.7219512,27.5584375 42.7804878,27.5182187 C43.6060976,26.9502812 43.9926829,26.6663125 44.2256098,26.3384688 C45.0707317,25.142875 45.9170732,23.855875 46.4573171,22.4738125 C47.6292683,21.9375625 48.7085366,20.901625 48.7085366,19.5865938 L48.7085366,16.8505 C48.7085366,16.3471563 48.5109756,15.856 48.1231707,15.392875 C47.8341463,15.04675 47.4890244,14.486125 47.4890244,13.784125 L47.4890244,12.4995625 C47.4109756,9.5599375 45.2719512,4 37.7317073,4 C30.1914634,4 28.052439,9.5599375 27.9756098,12.53125 L27.9756098,13.7829063 C27.9756098,14.4849063 27.6317073,15.0455313 27.3426829,15.3904375 C26.9536585,15.856 26.7560976,16.3471563 26.7560976,16.8505 L26.7560976,19.5865938 C26.7560976,20.7614687 27.7231707,21.593875 28.4060976,22.0728438 C29.2182927,24.5298437 31.6768293,26.35675 32.8536585,27.1160312 L32.8536585,28.7333125 C32.5353659,29.042875 31.5621951,29.5047812 31.1268293,29.7119687 C30.8585366,29.8399375 30.6219512,29.9532812 30.4195122,30.0641875 L24.7060976,33.3791875 C24.2231707,33.6424375 23.7585366,33.9836875 23.3256098,34.39075 L23.2426829,34.46875 L17,34.46875 L17,43 L67,43 L67,34.46875 Z M31.6158537,32.1884687 C31.7585366,32.1104687 31.9536585,32.0178437 32.1743902,31.9130312 C33.5634146,31.2524687 35.2926829,30.4310312 35.2926829,28.9295312 L35.2926829,25.7059375 L34.6573171,25.3598125 C33.697561,24.8369687 31.1060976,23.04175 30.6463415,21.0369062 L30.5353659,20.5542812 L30.1195122,20.2849375 C29.3658537,19.7986562 29.2243902,19.5488125 29.195122,19.5865937 L29.195122,16.97725 C29.2,16.972375 29.2060976,16.9650625 29.2146341,16.952875 C29.9878049,16.0278437 30.4146341,14.9005 30.4146341,13.7829062 L30.4146341,12.5629375 C30.4207317,12.3130937 30.6573171,6.4375 37.7317073,6.4375 C44.6292683,6.4375 45.0268293,11.941375 45.0487805,12.53125 L45.0487805,13.7829062 C45.0487805,14.885875 45.4634146,15.9961562 46.2682927,16.9845625 L46.2695122,19.5695312 C46.2292683,19.7425937 45.7353659,20.1910937 45.1365854,20.3739062 L44.5304878,20.560375 L44.3353659,21.164875 C43.9219512,22.4482187 43.0817073,23.7315625 42.295122,24.8528125 C42.1695122,24.977125 41.6658537,25.32325 41.3963415,25.5097187 C40.8792683,25.8655937 40.6439024,26.0313437 40.4743902,26.2226875 L40.1707317,26.5700312 L40.1707317,29.59375 C40.1707317,31.2085937 41.7817073,31.5461875 42.5560976,31.7082812 C42.8036585,31.7594687 43.0817073,31.8179687 43.2390244,31.8825625 L47.2390244,34.46875 L27.6841463,34.46875 L31.6158537,32.1884687 Z M64.5609756,40.5625 L19.4390244,40.5625 L19.4390244,36.90625 L24.4012195,36.90625 L50.4731707,36.90625 L64.5609756,36.90625 L64.5609756,40.5625 Z" id="Shape" fill="#5EFFC2"></path>
                        <path d="M67,5 L60,5 L60,12 L67,12 L67,5 Z M64.6666667,9.66666667 L62.3333333,9.66666667 L62.3333333,7.33333333 L64.6666667,7.33333333 L64.6666667,9.66666667 Z" id="Shape" fill="#5EFFC2"></path>
                        <path d="M15,34 L6,34 L6,42 L15,42 L15,34 Z M12.4285714,39.7142857 L8.57142857,39.7142857 L8.57142857,36.2857143 L12.4285714,36.2857143 L12.4285714,39.7142857 Z" id="Shape" fill="#5EFFC2"></path>
                    </g>
                </g>
            </g>
        </g>
    </g>
</svg>