<?xml version="1.0" encoding="UTF-8"?>
<svg width="710px" height="832px" viewBox="0 0 710 832" version="1.1" xmlns="http://www.w3.org/2000/svg" xmlns:xlink="http://www.w3.org/1999/xlink">
    <!-- Generator: Sketch 48.2 (47327) - http://www.bohemiancoding.com/sketch -->
    <title>bcg-img</title>
    <desc>Created with Sketch.</desc>
    <defs>
        <radialGradient cx="100%" cy="0%" fx="100%" fy="0%" r="100%" gradientTransform="translate(1.000000,0.000000),scale(1.000000,0.853365),rotate(90.000000),scale(1.000000,0.848551),translate(-1.000000,-0.000000)" id="radialGradient-1">
            <stop stop-color="#27D694" offset="0%"></stop>
            <stop stop-color="#96FFD7" offset="49.9043367%"></stop>
            <stop stop-color="#FFFFFF" offset="100%"></stop>
        </radialGradient>
        <linearGradient x1="50%" y1="44.7904147%" x2="50%" y2="85.8492338%" id="linearGradient-2">
            <stop stop-color="#FFFFFF" stop-opacity="0" offset="0%"></stop>
            <stop stop-color="#FFFFFF" offset="100%"></stop>
        </linearGradient>
        <rect id="path-3" x="0" y="0" width="710" height="832"></rect>
    </defs>
    <g id="Landing-page" stroke="none" stroke-width="1" fill="none" fill-rule="evenodd" transform="translate(-730.000000, 0.000000)">
        <g id="bcg-img" transform="translate(730.000000, 0.000000)">
            <mask id="mask-4" fill="white">
                <use xlink:href="#path-3"></use>
            </mask>
            <g id="base">
                <use fill="#FFFFFF" xlink:href="#path-3"></use>
                <use fill="url(#radialGradient-1)" xlink:href="#path-3"></use>
                <use fill="url(#linearGradient-2)" xlink:href="#path-3"></use>
            </g>
            <g id="net" mask="url(#mask-4)">
                <g transform="translate(369.542835, 338.967664) rotate(-7.000000) translate(-369.542835, -338.967664) translate(-37.457165, -215.532336)">
                    <g id="Group-20" opacity="0.700000048" transform="translate(12.000000, 0.000000)">
                        <path d="M76.4813881,834.125366 L244.298754,728.748995 L78.3904697,702.404902 L76.4813881,834.125366 Z M248.14722,727.962604 L75.0874555,836.666014 L76.9965371,700.801875 L248.14722,727.962604 Z" id="Fill-7" fill="#FFFFFF"></path>
                        <path d="M245.632081,727.55731 L256.874451,645.258486 L80.6934888,701.394692 L245.632081,727.55731 Z M258.571412,643.262263 L246.783591,729.160338 L246.14723,729.069601 L74.693518,701.818134 L258.571412,643.262263 Z" id="Fill-9" fill="#FFFFFF"></path>
                        <path d="M77.9904717,700.795826 L255.232034,644.326915 L4.47567749,580.357045 L77.9904717,700.795826 Z M260.201707,644.175686 L77.384414,702.429099 L77.1419909,701.975412 L1.53629784,578.209594 L260.201707,644.175686 Z" id="Fill-11" fill="#FFFFFF"></path>
                        <path d="M258.298686,642.787404 L453.63107,461.040384 L239.359384,391.021355 L258.298686,642.787404 Z M456.297724,460.465714 L455.479546,461.252105 L257.116874,645.751492 L237.783634,389.085623 L456.297724,460.465714 Z" id="Fill-13" fill="#FFFFFF"></path>
                        <polygon id="Fill-15" fill="#FFFFFF" points="780.932509 635.28342 614.296956 738.482094 613.599989 737.332753 780.20524 634.103834"></polygon>
                        <path d="M616.899973,735.266965 L778.656763,635.062626 L706.141964,622.056931 L616.899973,735.266965 Z M782.444623,634.336727 L610.990911,740.590226 L705.566209,620.574887 L705.960146,620.635379 L782.444623,634.336727 Z" id="Fill-17" fill="#FFFFFF"></path>
                        <path d="M239.535141,389.639122 L453.534101,459.59766 L322.837766,215.695519 L239.535141,389.639122 Z M456.412875,461.956832 L237.626059,390.455758 L322.807463,212.670939 L456.412875,461.956832 Z" id="Fill-19" fill="#FFFFFF"></path>
                        <path d="M323.874125,214.694383 L452.05532,453.93867 L374.025396,205.408922 L323.874125,214.694383 Z M455.63106,460.592747 L454.358339,461.076679 L321.783226,213.666026 L375.055694,203.866386 L375.207209,204.441056 L455.63106,460.592747 Z" id="Fill-21" fill="#FFFFFF"></path>
                        <path d="M238.380601,388.901124 L318.77415,221.067173 L214.592838,367.003164 L238.380601,388.901124 Z M323.471097,214.473589 L238.804841,391.169559 L212.774665,367.154393 L322.258981,213.777935 L323.471097,214.473589 Z" id="Fill-23" fill="#FFFFFF"></path>
                        <path d="M214.353445,365.006941 L321.595348,214.745801 L210.565585,201.588877 L214.353445,365.006941 Z M324.080185,213.626706 L213.020118,369.241353 L209.111046,200.046342 L209.929224,200.137079 L324.080185,213.626706 Z" id="Fill-25" fill="#FFFFFF"></path>
                        <path d="M374.122366,204.029714 L441.849309,74.1542434 L324.577152,213.1337 L374.122366,204.029714 Z M448.940184,63.6589504 L375.001149,205.269791 L374.667817,205.300037 L321.062017,215.190414 L448.940184,63.6589504 Z" id="Fill-27" fill="#FFFFFF"></path>
                        <path d="M210.565585,200.218743 L319.625661,213.103454 L212.414061,150.403908 L210.565585,200.218743 Z M326.080175,215.250906 L209.111046,201.398329 L211.14134,148.01449 L326.080175,215.250906 Z" id="Fill-29" fill="#FFFFFF"></path>
                        <path d="M322.66201,213.245609 L443.237181,70.3946903 L213.450419,149.366477 L322.66201,213.245609 Z M447.54019,67.4608476 L322.965038,215.090603 L322.449889,214.788145 L210.086799,149.033773 L211.541338,148.519595 L447.54019,67.4608476 Z" id="Fill-31" fill="#FFFFFF"></path>
                        <path d="M96.335837,381.487878 L212.941331,366.516207 L209.214076,203.128389 L96.335837,381.487878 Z M214.395869,367.695793 L93.5479718,383.302626 L94.3358468,382.032303 L210.486797,198.500781 L214.395869,367.695793 Z" id="Fill-33" fill="#FFFFFF"></path>
                        <path d="M4.4211323,578.941542 L256.874451,643.304607 L213.238299,391.387329 L4.4211323,578.941542 Z M258.632018,645.210092 L1.60296418,579.637195 L2.54235355,578.760067 L214.177688,388.695453 L258.632018,645.210092 Z" id="Fill-35" fill="#FFFFFF"></path>
                        <path d="M214.498899,390.73402 L255.953243,629.978307 L237.892725,390.73402 L214.498899,390.73402 Z M258.407776,644.193833 L257.044147,644.375308 L212.862543,389.312467 L239.226052,389.312467 L258.407776,644.193833 Z" id="Fill-37" fill="#FFFFFF"></path>
                        <path d="M5.0423414,576.491632 L211.980729,390.631184 L95.3449328,383.099979 L5.0423414,576.491632 Z M215.374652,389.481843 L214.101931,390.570692 L0.951452196,582.087105 L94.496452,381.708673 L95.011601,381.738918 L215.374652,389.481843 Z" id="Fill-39" fill="#FFFFFF"></path>
                        <path d="M214.380718,389.315492 L236.774548,389.315492 L214.380718,368.687855 L214.380718,389.315492 Z M240.350289,390.737044 L212.986785,390.737044 L212.986785,365.542292 L240.350289,390.737044 Z" id="Fill-41" fill="#FFFFFF"></path>
                        <path d="M212.989815,389.285246 L212.989815,367.871218 L102.141869,382.177482 L212.989815,389.285246 Z M214.383748,366.328683 L214.383748,390.76729 L94.9297833,383.054611 L94.8691775,381.723795 L214.383748,366.328683 Z" id="Fill-43" fill="#FFFFFF"></path>
                        <path d="M680.820875,1106.7217 L745.184198,1106.7217 L741.638761,1039.697 L680.820875,1106.7217 Z M746.669039,1108.11301 L677.669375,1108.11301 L742.850876,1036.33972 L746.669039,1108.11301 Z" id="Fill-45" fill="#FFFFFF"></path>
                        <path d="M247.053286,727.793228 L327.022594,742.674162 L258.144141,646.099319 L247.053286,727.793228 Z M330.143791,744.640139 L245.447233,728.912322 L257.265358,642.439577 L330.143791,744.640139 Z" id="Fill-47" fill="#FFFFFF"></path>
                        <path d="M328.431679,742.265844 L452.946225,463.611277 L258.644139,644.329939 L328.431679,742.265844 Z M456.976508,457.925067 L328.704404,745.048457 L256.795663,644.148465 L257.250206,643.725023 L456.976508,457.925067 Z" id="Fill-49" fill="#FFFFFF"></path>
                        <path d="M459.824979,456.037729 L530.067062,399.901522 L510.794428,394.668998 L459.824979,456.037729 Z M533.067047,399.296606 L450.128057,465.53491 L510.248977,393.035725 L533.067047,399.296606 Z" id="Fill-51" fill="#FFFFFF"></path>
                        <path d="M455.267426,459.34662 L509.661101,393.834214 L376.510233,208.578682 L455.267426,459.34662 Z M511.388365,393.86446 L454.661368,462.159479 L454.328036,460.949647 L372.570858,200.714774 L511.388365,393.86446 Z" id="Fill-53" fill="#FFFFFF"></path>
                        <path d="M531.20039,398.767304 L663.411868,122.350928 L511.564122,393.413798 L531.20039,398.767304 Z M673.896666,103.598531 L531.927659,400.430823 L509.473223,394.351417 L672.714854,102.993615 L673.896666,103.598531 Z" id="Fill-58" fill="#FFFFFF"></path>
                        <path d="M510.427764,392.594136 L671.790616,104.563372 L375.64054,205.009678 L510.427764,392.594136 Z M674.790601,102.113462 L510.609581,395.165029 L373.42843,204.253533 L374.307213,203.98132 L674.790601,102.113462 Z" id="Fill-60" fill="#FFFFFF"></path>
                        <path d="M301.089387,1106.7217 L366.937552,1080.07515 L141.66592,989.36799 L151.787083,1106.7217 L301.089387,1106.7217 Z M370.634504,1080.07515 L301.210599,1108.11301 L150.514362,1108.11301 L150.453756,1107.47784 L140.120473,987.250784 L141.181074,987.674225 L370.634504,1080.07515 Z" id="Fill-66" fill="#FFFFFF"></path>
                        <path d="M134.450803,1106.7217 L150.359817,1106.7217 L140.329563,989.791431 L103.420651,1024.81607 L134.450803,1106.7217 Z M151.905264,1108.11301 L133.511414,1108.11301 L101.784295,1024.45312 L141.450769,986.827343 L151.905264,1108.11301 Z" id="Fill-68" fill="#FFFFFF"></path>
                        <path d="M102.314596,1023.92987 L134.829589,993.07915 L87.7086062,1023.92987 L102.314596,1023.92987 Z M141.375012,988.814492 L102.890351,1025.35142 L83.0419623,1025.35142 L140.526531,987.786135 L141.375012,988.814492 Z" id="Fill-70" fill="#FFFFFF"></path>
                        <path d="M86.0389174,1023.39754 L140.038655,988.040199 L76.6753265,839.261103 L86.0389174,1023.39754 Z M141.765919,988.554378 L84.7358934,1025.8777 L74.8874564,831.518178 L141.765919,988.554378 Z" id="Fill-72" fill="#FFFFFF"></path>
                        <path d="M140.875014,986.536983 L244.7836,730.082835 L76.6632054,835.670927 L140.875014,986.536983 Z M247.662374,726.634814 L140.875014,990.136233 L74.9056382,835.126502 L247.662374,726.634814 Z" id="Fill-74" fill="#FFFFFF"></path>
                        <path d="M143.447729,983.848131 L327.29532,744.119911 L246.659349,729.14824 L143.447729,983.848131 Z M329.780157,743.182291 L138.356845,992.800888 L245.810868,727.575458 L329.780157,743.182291 Z" id="Fill-76" fill="#FFFFFF"></path>
                        <path d="M779.926454,633.864892 L791.13852,482.666132 L706.987414,620.798706 L779.926454,633.864892 Z M792.92639,477.070659 L781.199175,635.528411 L704.745001,621.827063 L792.92639,477.070659 Z" id="Fill-78" fill="#FFFFFF"></path>
                        <path d="M475.152177,1077.30463 L741.029673,1037.50116 L572.000192,792.963856 L475.152177,1077.30463 Z M743.453904,1038.52952 L742.332697,1038.71099 L473.121884,1078.9984 L473.424913,1077.93979 L571.636557,789.90903 L743.453904,1038.52952 Z" id="Fill-83" fill="#FFFFFF"></path>
                        <polygon id="Fill-85" fill="#FFFFFF" points="742.78724 1037.63424 741.666034 1038.39038 571.212317 791.826613 572.394129 791.070468"></polygon>
                        <path d="M437.86448,832.709863 L569.015358,791.605819 L331.137726,744.876056 L437.86448,832.709863 Z M574.591088,791.303361 L437.591754,834.252399 L326.046842,742.456392 L574.591088,791.303361 Z" id="Fill-87" fill="#FFFFFF"></path>
                        <polygon id="Fill-89" fill="#FFFFFF" points="614.475743 738.36716 572.324432 791.871982 571.263832 790.994854 613.415142 737.490032"></polygon>
                        <path d="M571.506255,790.677273 L612.506055,738.654495 L335.022556,744.219722 L571.506255,790.677273 Z M615.384829,737.202696 L572.112312,792.219809 L571.657769,792.129071 L322.14383,743.100628 L615.384829,737.202696 Z" id="Fill-91" fill="#FFFFFF"></path>
                        <path d="M369.773902,1079.3432 L473.07643,1077.49821 L411.076731,942.511195 L369.773902,1079.3432 Z M475.197632,1078.82902 L367.86482,1080.795 L368.107243,1079.88762 L410.804005,938.579241 L475.197632,1078.82902 Z" id="Fill-98" fill="#FFFFFF"></path>
                        <path d="M368.382999,1079.16475 L409.958555,941.395125 L143.414396,988.548329 L368.382999,1079.16475 Z M411.928242,939.671114 L369.201177,1081.00974 L368.564817,1080.70728 L138.384117,988.03415 L411.928242,939.671114 Z" id="Fill-100" fill="#FFFFFF"></path>
                        <path d="M473.997638,1076.32769 L570.269897,793.801664 L411.755516,940.70552 L473.997638,1076.32769 Z M573.330488,789.053073 L572.482007,791.654212 L474.209758,1080.04793 L410.088857,940.372817 L573.330488,789.053073 Z" id="Fill-102" fill="#FFFFFF"></path>
                        <path d="M142.529552,987.362693 L409.952494,939.997769 L328.407436,745.033334 L142.529552,987.362693 Z M411.922182,941.056372 L139.256841,989.298425 L140.347744,987.907118 L328.740768,742.280966 L411.922182,941.056372 Z" id="Fill-104" fill="#FFFFFF"></path>
                        <path d="M412.179756,938.452208 L569.088085,793.00015 L438.270539,834.013457 L412.179756,938.452208 Z M574.512301,789.884833 L409.69492,942.626129 L437.149332,832.954854 L574.512301,789.884833 Z" id="Fill-106" fill="#FFFFFF"></path>
                        <path d="M410.788854,938.331225 L436.940242,833.741245 L330.304397,745.998175 L410.788854,938.331225 Z M438.515992,833.227066 L411.091883,942.747112 L326.819565,741.310076 L438.515992,833.227066 Z" id="Fill-108" fill="#FFFFFF"></path>
                        <path d="M678.957247,1106.7217 L739.956951,1039.51553 L541.048827,1106.7217 L678.957247,1106.7217 Z M744.532686,1036.52119 L679.563305,1108.11301 L532.624625,1108.11301 L744.532686,1036.52119 Z" id="Fill-110" fill="#FFFFFF"></path>
                        <path d="M536.706424,1106.7217 L734.644856,1039.84823 L475.161268,1078.68384 L487.312724,1106.7217 L536.706424,1106.7217 Z M742.462999,1038.69889 L536.918544,1108.11301 L486.403638,1108.11301 L473.130975,1077.62524 L742.159971,1037.33783 L742.462999,1038.69889 Z" id="Fill-117" fill="#FFFFFF"></path>
                        <path d="M532.976139,398.204732 L714.61162,316.964511 L673.005761,105.516115 L532.976139,398.204732 Z M716.217672,317.811393 L715.702523,318.023114 L530.127668,400.987346 L530.976149,399.293581 L673.611819,101.160719 L716.217672,317.811393 Z" id="Fill-125" fill="#FFFFFF"></path>
                        <path d="M330.386214,742.916128 L613.142416,737.260164 L578.960764,515.618933 L330.386214,742.916128 Z M614.778772,738.590979 L613.930291,738.590979 L326.749869,744.367927 L579.900153,512.866565 L580.142576,514.167134 L614.778772,738.590979 Z" id="Fill-127" fill="#FFFFFF"></path>
                        <path d="M330.561971,740.877561 L578.197131,514.517985 L455.288638,461.708817 L330.561971,740.877561 Z M580.71227,514.064298 L579.924395,514.790198 L326.561991,746.412543 L454.621974,459.863823 L580.71227,514.064298 Z" id="Fill-129" fill="#FFFFFF"></path>
                        <path d="M614.357561,736.24088 L704.902576,621.397573 L580.418332,515.990956 L614.357561,736.24088 Z M706.84196,621.216098 L706.387417,621.730277 L613.509081,739.598164 L578.478948,512.542935 L706.84196,621.216098 Z" id="Fill-131" fill="#FFFFFF"></path>
                        <path d="M580.9153,513.341424 L791.035491,479.314897 L715.338889,318.800431 L580.9153,513.341424 Z M793.065784,480.403746 L792.156697,480.554975 L577.97592,515.216663 L578.915309,513.94634 L715.551009,316.048063 L793.065784,480.403746 Z" id="Fill-133" fill="#FFFFFF"></path>
                        <path d="M456.300754,460.616943 L578.148647,512.942179 L531.300389,400.730257 L456.300754,460.616943 Z M580.724392,515.60381 L453.6341,460.949647 L531.845841,398.461822 L580.724392,515.60381 Z" id="Fill-135" fill="#FFFFFF"></path>
                        <path d="M579.615306,512.854466 L713.493443,319.039373 L532.46402,399.946891 L579.615306,512.854466 Z M717.402515,315.772826 L716.038885,317.799295 L579.312277,515.727817 L578.827431,514.517985 L530.67615,399.281483 L531.282208,398.979025 L717.402515,315.772826 Z" id="Fill-137" fill="#FFFFFF"></path>
                    </g>
                    <g id="Group-204" transform="translate(0.000000, 59.000000)">
                        <path d="M152.875014,917.731294 C160.299221,917.731294 166.329495,923.719963 166.329495,931.130184 C166.329495,938.51016 160.299221,944.529074 152.875014,944.529074 C145.511414,944.529074 139.541746,938.51016 139.541746,931.130184 C139.541746,923.719963 145.511414,917.731294 152.875014,917.731294" id="Fill-139" fill="#FFFFFF"></path>
                        <path d="M268.374453,570.140498 C275.798659,570.140498 281.768327,576.159413 281.768327,583.539388 C281.768327,590.919363 275.798659,596.938278 268.374453,596.938278 C260.98055,596.938278 254.950276,590.919363 254.950276,583.539388 C254.950276,576.159413 260.98055,570.140498 268.374453,570.140498" id="Fill-141" fill="#FFFFFF"></path>
                        <path d="M422.64037,873.484712 C428.519129,873.484712 433.306985,878.233302 433.306985,884.131234 C433.306985,889.968673 428.519129,894.717264 422.64037,894.717264 C416.761611,894.717264 411.973755,889.968673 411.973755,884.131234 C411.973755,878.233302 416.761611,873.484712 422.64037,873.484712" id="Fill-143" fill="#FFFFFF"></path>
                        <path d="M86.7935175,764.551434 C92.6722768,764.551434 97.4601323,769.330271 97.4601323,775.197956 C97.4601323,781.035396 92.6722768,785.814232 86.7935175,785.814232 C80.9450611,785.814232 76.1572056,781.035396 76.1572056,775.197956 C76.1572056,769.330271 80.9450611,764.551434 86.7935175,764.551434" id="Fill-145" fill="#FFFFFF"></path>
                        <path d="M258.117721,666.857989 C259.887075,666.857989 261.294809,668.275962 261.294809,670.054874 C261.294809,671.808004 259.887075,673.238868 258.117721,673.238868 C256.348367,673.238868 254.914803,671.808004 254.914803,670.054874 C254.914803,668.275962 256.348367,666.857989 258.117721,666.857989" id="Fill-151" fill="#FFFFFF"></path>
                        <path d="M89.0722943,635.831354 C93.2237893,635.831354 96.5874093,639.158392 96.5874093,643.302067 C96.5874093,647.475987 93.2237893,650.772779 89.0722943,650.772779 C84.9511022,650.772779 81.5571793,647.475987 81.5571793,643.302067 C81.5571793,639.158392 84.9511022,635.831354 89.0722943,635.831354" id="Fill-153" fill="#FFFFFF"></path>
                        <path d="M447.569162,769.564106 C449.734802,769.564106 451.476152,771.319822 451.476152,773.472559 C451.476152,775.625296 449.734802,777.389835 447.569162,777.389835 C445.412362,777.389835 443.671012,775.625296 443.671012,773.472559 C443.671012,771.319822 445.412362,769.564106 447.569162,769.564106" id="Fill-159" fill="#FFFFFF"></path>
                        <path d="M583.185332,727.982131 C585.804899,727.982131 587.923191,730.112572 587.923191,732.727205 C587.923191,735.341837 585.804899,737.472278 583.185332,737.472278 C580.565765,737.472278 578.415133,735.341837 578.415133,732.727205 C578.415133,730.112572 580.565765,727.982131 583.185332,727.982131" id="Fill-161" fill="#FFFFFF"></path>
                        <path d="M591.973134,452.352564 C594.239649,452.352564 596.111988,454.207325 596.111988,456.469571 C596.111988,458.773971 594.239649,460.628731 591.973134,460.628731 C589.678463,460.628731 587.834279,458.773971 587.834279,456.469571 C587.834279,454.207325 589.678463,452.352564 591.973134,452.352564" id="Fill-163" fill="#FFFFFF"></path>
                        <path d="M727.681311,248.942188 C732.590378,248.942188 736.620662,252.934634 736.620662,257.864699 C736.620662,262.734273 732.590378,266.726719 727.681311,266.726719 C722.772244,266.726719 718.802567,262.734273 718.802567,257.864699 C718.802567,252.934634 722.772244,248.942188 727.681311,248.942188" id="Fill-165" fill="#FFFFFF"></path>
                        <path d="M542.921496,336.848833 C545.408713,336.848833 547.422901,338.843997 547.422901,341.311299 C547.422901,343.793831 545.408713,345.788995 542.921496,345.788995 C540.449538,345.788995 538.450608,343.793831 538.450608,341.311299 C538.450608,338.843997 540.449538,336.848833 542.921496,336.848833" id="Fill-167" fill="#FFFFFF"></path>
                        <path d="M107.788743,317.843995 C110.596268,317.843995 112.852622,320.11329 112.852622,322.881143 C112.852622,325.68338 110.596268,327.952675 107.788743,327.952675 C104.998443,327.952675 102.724864,325.68338 102.724864,322.881143 C102.724864,320.11329 104.998443,317.843995 107.788743,317.843995" id="Fill-175" fill="#FFFFFF"></path>
                        <path d="M226.210611,306.066556 C227.652711,306.066556 228.813427,307.225085 228.813427,308.638139 C228.813427,310.068746 227.652711,311.227275 226.210611,311.227275 C224.79489,311.227275 223.634175,310.068746 223.634175,308.638139 C223.634175,307.225085 224.79489,306.066556 226.210611,306.066556" id="Fill-177" fill="#FFFFFF"></path>
                        <path d="M251.085179,328.261689 C252.848097,328.261689 254.24374,329.691361 254.24374,331.432629 C254.24374,333.192227 252.848097,334.566912 251.085179,334.566912 C249.340625,334.566912 247.944981,333.192227 247.944981,331.432629 C247.944981,329.691361 249.340625,328.261689 251.085179,328.261689" id="Fill-179" fill="#FFFFFF"></path>
                        <path d="M226.363883,328.518576 C227.706034,328.518576 228.831709,329.627726 228.831709,331.010562 C228.831709,332.378994 227.706034,333.488143 226.363883,333.488143 C224.978437,333.488143 223.852762,332.378994 223.852762,331.010562 C223.852762,329.627726 224.978437,328.518576 226.363883,328.518576" id="Fill-181" fill="#FFFFFF"></path>
                        <path d="M626.003467,674.136442 C628.186905,674.136442 629.930992,675.890532 629.930992,678.04328 C629.930992,680.209316 628.186905,681.950118 626.003467,681.950118 C623.85997,681.950118 622.102569,680.209316 622.102569,678.04328 C622.102569,675.890532 623.85997,674.136442 626.003467,674.136442" id="Fill-188" fill="#FFFFFF"></path>
                        <path d="M717.323786,553.332906 C722.232853,553.332906 726.263136,557.325352 726.263136,562.225172 C726.263136,567.124992 722.232853,571.117437 717.323786,571.117437 C712.414719,571.117437 708.414738,567.124992 708.414738,562.225172 C708.414738,557.325352 712.414719,553.332906 717.323786,553.332906" id="Fill-194" fill="#FFFFFF"></path>
                        <path d="M341.519226,682.203071 C343.411408,682.203071 344.945774,683.734546 344.945774,685.617111 C344.945774,687.505729 343.411408,689.037204 341.519226,689.037204 C339.627044,689.037204 338.092678,687.505729 338.092678,685.617111 C338.092678,683.734546 339.627044,682.203071 341.519226,682.203071" id="Fill-196" fill="#FFFFFF"></path>
                        <path d="M466.973448,398.317196 C469.333913,398.317196 471.240442,400.227685 471.240442,402.576152 C471.240442,404.932171 469.333913,406.835108 466.973448,406.835108 C464.612983,406.835108 462.706454,404.932171 462.706454,402.576152 C462.706454,400.227685 464.612983,398.317196 466.973448,398.317196" id="Fill-198" fill="#FFFFFF"></path>
                        <path d="M17.1332501,502.411076 C26.5574467,502.411076 34.2240761,510.033017 34.2240761,519.469707 C34.2240761,528.906397 26.5574467,536.528339 17.1332501,536.528339 C7.67875055,536.528339 0.0121211532,528.906397 0.0121211532,519.469707 C0.0121211532,510.033017 7.67875055,502.411076 17.1332501,502.411076" id="Fill-200" fill="#FFFFFF"></path>
                    </g>
                </g>
            </g>
        </g>
    </g>
</svg>