<svg width="212" height="54" xmlns="http://www.w3.org/2000/svg" xmlns:xlink="http://www.w3.org/1999/xlink"><defs><path id="a" d="M0 53.492h211.406V0H0z"/></defs><g fill="none" fill-rule="evenodd"><g><path d="M66.454 31.314c.358.12.887.232 1.592.339.703.107 1.627.16 2.771.16 2.002 0 3.61-.649 4.828-1.945 1.215-1.298 1.822-3.161 1.822-5.59 0-1.023-.107-1.993-.321-2.91-.214-.916-.56-1.714-1.037-2.392a5.19 5.19 0 0 0-1.878-1.626c-.774-.404-1.734-.607-2.878-.607a7.48 7.48 0 0 0-1.573.161c-.5.107-.966.245-1.394.411a7.683 7.683 0 0 0-1.932 1.071v12.928zm0-15.177c.405-.31 1.055-.637 1.949-.982.894-.346 1.948-.518 3.165-.518 1.334 0 2.52.238 3.557.714a7.397 7.397 0 0 1 2.629 2c.715.857 1.257 1.875 1.627 3.053.369 1.18.554 2.47.554 3.874 0 1.5-.22 2.846-.661 4.035-.44 1.192-1.061 2.203-1.86 3.037a7.999 7.999 0 0 1-2.86 1.91c-1.11.44-2.342.66-3.702.66-1.645 0-3.003-.107-4.076-.321-1.073-.214-1.955-.44-2.646-.679V6.21l2.324-.43v10.357zM88.232 33.813c-.788-.024-1.473-.125-2.057-.304-.583-.177-1.072-.452-1.466-.82-.394-.37-.691-.845-.894-1.429-.203-.584-.304-1.316-.304-2.197V6.21l2.325-.43v23.212c0 .572.053 1.03.16 1.375.108.346.27.62.484.821.214.203.494.352.84.446.346.095.757.18 1.234.25l-.322 1.929zM97.063 31.813c.906 0 1.699-.03 2.378-.09.68-.059 1.257-.135 1.735-.232v-6.499c-.263-.118-.68-.243-1.252-.374-.573-.13-1.358-.196-2.36-.196-.572 0-1.168.041-1.788.124a5.177 5.177 0 0 0-1.716.536 3.545 3.545 0 0 0-1.287 1.125c-.335.476-.501 1.107-.501 1.893 0 .69.113 1.274.34 1.748.226.477.548.859.965 1.144.417.285.917.495 1.501.625a9.089 9.089 0 0 0 1.985.196m-.214-17.212c1.215 0 2.247.174 3.093.517.846.346 1.532.822 2.057 1.43a5.627 5.627 0 0 1 1.144 2.16c.238.833.358 1.738.358 2.713v11.642a10.44 10.44 0 0 1-1.038.232 59.06 59.06 0 0 1-1.573.268 27.382 27.382 0 0 1-4.22.322c-.978 0-1.877-.107-2.7-.322-.823-.214-1.538-.554-2.145-1.018a4.808 4.808 0 0 1-1.431-1.785c-.345-.726-.517-1.614-.517-2.66 0-1 .189-1.857.57-2.572a4.862 4.862 0 0 1 1.61-1.767c.691-.465 1.514-.804 2.468-1.018.953-.214 1.99-.32 3.11-.32.334 0 .685.016 1.055.053.37.035.728.083 1.074.143.345.059.643.118.894.178.25.058.423.113.518.16v-1.143c0-.643-.048-1.267-.143-1.874a4.118 4.118 0 0 0-.626-1.643c-.322-.487-.775-.88-1.36-1.178-.583-.297-1.352-.447-2.305-.447-1.36 0-2.372.096-3.04.286-.667.191-1.157.346-1.466.464l-.321-2.035c.405-.19 1.03-.37 1.876-.536.846-.166 1.866-.25 3.058-.25M115.659 33.885c-1.43 0-2.695-.227-3.79-.679-1.098-.452-2.01-1.1-2.736-1.946-.727-.845-1.283-1.857-1.663-3.035-.382-1.179-.572-2.482-.572-3.91 0-1.452.197-2.774.59-3.965.393-1.19.96-2.214 1.699-3.07a7.487 7.487 0 0 1 2.682-1.982c1.049-.464 2.228-.697 3.54-.697 1 0 1.937.084 2.806.25.871.166 1.544.382 2.02.643l-.607 2a7.595 7.595 0 0 0-1.609-.571c-.596-.143-1.395-.215-2.396-.215-2.05 0-3.607.66-4.667 1.981-1.06 1.322-1.591 3.197-1.591 5.625 0 1.095.12 2.1.357 3.018.239.916.627 1.702 1.163 2.357.536.655 1.227 1.166 2.075 1.535.844.37 1.876.553 3.092.553 1.001 0 1.842-.112 2.522-.339.679-.226 1.173-.422 1.484-.59l.5 2.001c-.43.239-1.103.47-2.02.696-.919.226-1.878.34-2.879.34M127.674 23.44a26.957 26.957 0 0 1 2.552 2.052 39.45 39.45 0 0 1 2.539 2.524c.833.905 1.619 1.834 2.357 2.787a31.184 31.184 0 0 1 1.885 2.689h-2.793a22.986 22.986 0 0 0-1.948-2.762 32.054 32.054 0 0 0-2.325-2.548A34.44 34.44 0 0 0 127.507 26c-.812-.655-1.531-1.15-2.157-1.478v8.969h-2.325V6.209l2.325-.428v17.2a35.556 35.556 0 0 0 1.859-1.74c.741-.733 1.498-1.473 2.267-2.216.771-.744 1.498-1.463 2.181-2.16a47.23 47.23 0 0 0 1.724-1.835h2.84a86.374 86.374 0 0 1-1.885 1.903l-2.215 2.18c-.768.757-1.525 1.5-2.269 2.234-.744.732-1.47 1.43-2.178 2.092M146.41 33.885c-1.43 0-2.694-.227-3.79-.679-1.097-.452-2.009-1.1-2.735-1.946-.728-.845-1.283-1.857-1.663-3.035-.382-1.179-.572-2.482-.572-3.91 0-1.452.197-2.774.59-3.965.393-1.19.96-2.214 1.698-3.07a7.487 7.487 0 0 1 2.683-1.982c1.049-.464 2.228-.697 3.54-.697 1 0 1.937.084 2.806.25.871.166 1.544.382 2.02.643l-.607 2a7.601 7.601 0 0 0-1.608-.571c-.597-.143-1.396-.215-2.397-.215-2.05 0-3.607.66-4.667 1.981-1.06 1.322-1.591 3.197-1.591 5.625 0 1.095.12 2.1.357 3.018.239.916.627 1.702 1.163 2.357.536.655 1.227 1.166 2.074 1.535.845.37 1.877.553 3.093.553 1.001 0 1.842-.112 2.521-.339.68-.226 1.174-.422 1.485-.59l.5 2.001c-.43.239-1.103.47-2.02.696-.919.226-1.878.34-2.88.34M153.777 33.492V6.21l2.325-.43v9.785a14.771 14.771 0 0 1 2.324-.66 12.244 12.244 0 0 1 2.36-.233c1.43 0 2.623.203 3.576.608.953.405 1.717.98 2.288 1.73.573.752.971 1.65 1.198 2.698.227 1.047.34 2.201.34 3.464v10.32h-2.324v-9.57c0-1.31-.09-2.417-.268-3.321-.18-.905-.477-1.643-.894-2.215a3.478 3.478 0 0 0-1.664-1.232c-.691-.25-1.56-.375-2.61-.375-.406 0-.84.037-1.304.107-.466.071-.902.15-1.307.233-.405.084-.768.172-1.09.267-.322.095-.53.168-.625.215v15.89h-2.325zM178.522 31.813c.906 0 1.699-.03 2.378-.09.68-.059 1.258-.135 1.735-.232v-6.499c-.263-.118-.68-.243-1.252-.374-.572-.13-1.358-.196-2.36-.196-.571 0-1.167.041-1.788.124a5.177 5.177 0 0 0-1.716.536 3.545 3.545 0 0 0-1.287 1.125c-.334.476-.5 1.107-.5 1.893 0 .69.112 1.274.339 1.748.226.477.548.859.965 1.144.417.285.917.495 1.502.625a9.089 9.089 0 0 0 1.984.196m-.214-17.212c1.215 0 2.247.174 3.093.517.846.346 1.532.822 2.057 1.43a5.627 5.627 0 0 1 1.144 2.16c.238.833.358 1.738.358 2.713v11.642a10.44 10.44 0 0 1-1.037.232c-.453.084-.978.174-1.574.268a27.382 27.382 0 0 1-4.22.322c-.978 0-1.877-.107-2.7-.322-.823-.214-1.537-.554-2.145-1.018a4.808 4.808 0 0 1-1.43-1.785c-.346-.726-.518-1.614-.518-2.66 0-1 .19-1.857.57-2.572a4.862 4.862 0 0 1 1.61-1.767c.691-.465 1.514-.804 2.468-1.018.953-.214 1.99-.32 3.111-.32.333 0 .685.016 1.055.053.369.035.728.083 1.073.143.345.059.643.118.894.178.25.058.423.113.518.16v-1.143c0-.643-.048-1.267-.143-1.874a4.118 4.118 0 0 0-.626-1.643c-.322-.487-.774-.88-1.359-1.178-.584-.297-1.352-.447-2.306-.447-1.36 0-2.372.096-3.04.286-.667.191-1.156.346-1.465.464l-.322-2.035c.405-.19 1.03-.37 1.876-.536.846-.166 1.866-.25 3.058-.25" fill="#333"/><mask id="b" fill="#fff"><use xlink:href="#a"/></mask><path d="M189.465 33.492h2.324V15.03h-2.324v18.462zm2.86-24.033c0 .548-.167.982-.501 1.303a1.684 1.684 0 0 1-1.215.483c-.478 0-.883-.161-1.217-.483-.334-.321-.5-.755-.5-1.303 0-.548.166-.983.5-1.304.334-.322.74-.482 1.217-.482.476 0 .881.16 1.215.482.334.321.502.756.502 1.304zM196.51 15.672a44.49 44.49 0 0 1 2.789-.642c1.167-.238 2.598-.358 4.29-.358 1.408 0 2.58.203 3.522.608.942.405 1.693.98 2.254 1.73.56.752.96 1.65 1.198 2.698.237 1.047.358 2.201.358 3.464v10.32h-2.326v-9.57c0-1.31-.089-2.417-.267-3.321-.18-.905-.477-1.643-.894-2.215a3.489 3.489 0 0 0-1.644-1.232c-.68-.25-1.533-.375-2.559-.375-1.096 0-2.043.06-2.842.178-.798.12-1.318.227-1.555.323v16.212h-2.325v-17.82z" fill="#333" mask="url(#b)"/></g><path d="M41.674 11.91V9.17c0-5.057-4.157-9.17-9.267-9.17H5.37v6.711H.001V9.61H5.37v24.354H0v2.899h5.371v6.711h27.036c5.11 0 9.267-4.113 9.267-9.17v-2.74h-2.93v2.74c0 3.459-2.843 6.272-6.337 6.272H8.3v-3.813h.004v-2.899H8.3V23.236h20.899c1.687 0 3.058 1.358 3.058 3.025v4.678c0 1.668-1.37 3.025-3.058 3.025H11.912v2.899h17.287c3.302 0 5.988-2.658 5.988-5.924V26.26a5.882 5.882 0 0 0-2.075-4.474 5.883 5.883 0 0 0 2.075-4.475v-4.677c0-3.267-2.686-5.924-5.988-5.924H11.912V9.61h17.287c1.687 0 3.058 1.357 3.058 3.025v4.677c0 1.668-1.37 3.026-3.058 3.026H8.3V9.61h.004V6.71H8.3V2.898h24.107c3.494 0 6.337 2.813 6.337 6.271v2.74h2.93z" fill="#1A1A1A"/><g fill="#333"><path d="M167.234 51.928a33.839 33.839 0 0 0-.382-.867l-.51-1.139a61.302 61.302 0 0 0-.582-1.258l-.582-1.224c-.181-.384-.35-.727-.51-1.031a14.697 14.697 0 0 0-.38-.697 85.244 85.244 0 0 0-.258 3.635c-.068 1.304-.125 2.62-.174 3.947h-1.364a261 261 0 0 1 .13-2.582 150.936 150.936 0 0 1 .366-5.014c.07-.797.15-1.55.237-2.262h1.22c.259.418.537.91.834 1.48.297.569.593 1.164.89 1.784.297.622.585 1.244.863 1.864.279.622.531 1.188.763 1.7.23-.512.482-1.078.76-1.7.278-.62.566-1.242.863-1.864.297-.62.594-1.215.89-1.785.298-.568.574-1.061.834-1.479h1.22c.328 3.178.571 6.463.735 9.858h-1.366c-.05-1.328-.105-2.643-.173-3.947a83.313 83.313 0 0 0-.258-3.635c-.095.162-.224.394-.38.697-.16.304-.328.647-.51 1.031l-.583 1.224c-.206.432-.4.85-.582 1.258-.182.409-.35.788-.51 1.14-.159.35-.285.638-.381.866h-1.12zM175.28 53.294h1.393v-9.858h-1.393zM185.971 53.294c-.211-.35-.453-.744-.726-1.18-.273-.437-.567-.89-.884-1.36a89.788 89.788 0 0 0-.984-1.43c-.34-.482-.678-.95-1.013-1.4-.336-.45-.661-.875-.977-1.274-.316-.397-.609-.748-.877-1.051v7.695h-1.365v-9.858h1.106c.451.475.933 1.027 1.445 1.658.512.63 1.02 1.28 1.523 1.948.502.67.977 1.326 1.423 1.97.445.645.82 1.22 1.128 1.722v-7.298h1.365v9.858h-1.164zM189.606 53.294h1.393v-9.858h-1.393zM200.297 53.294c-.212-.35-.454-.744-.726-1.18-.273-.437-.568-.89-.884-1.36a94.172 94.172 0 0 0-.984-1.43 62.318 62.318 0 0 0-1.99-2.674c-.317-.397-.61-.748-.877-1.051v7.695h-1.365v-9.858h1.106c.45.475.933 1.027 1.445 1.658.512.63 1.02 1.28 1.522 1.948.503.67.978 1.326 1.423 1.97.446.645.82 1.22 1.128 1.722v-7.298h1.365v9.858h-1.163zM210.01 48.444h1.393v4.608c-.115.039-.28.082-.496.128a14.444 14.444 0 0 1-1.674.264c-.336.032-.675.05-1.02.05a5.174 5.174 0 0 1-1.912-.342 4.07 4.07 0 0 1-1.479-.995c-.413-.437-.73-.973-.957-1.608-.224-.636-.336-1.366-.336-2.19 0-.826.126-1.559.38-2.2a4.74 4.74 0 0 1 1.028-1.613 4.34 4.34 0 0 1 1.515-.996c.58-.228 1.2-.34 1.861-.34a7.074 7.074 0 0 1 2.098.284c.25.075.453.15.611.227a3.7 3.7 0 0 1 .323.17l-.446 1.153c-.277-.18-.647-.33-1.106-.448a5.585 5.585 0 0 0-1.408-.178c-.507 0-.97.09-1.387.27-.416.18-.77.44-1.063.782-.292.341-.52.757-.683 1.246a5.189 5.189 0 0 0-.244 1.642c0 .588.07 1.124.21 1.607.137.484.348.9.63 1.246.284.346.633.613 1.05.803.417.19.907.285 1.473.285.402 0 .745-.022 1.026-.065.284-.043.487-.082.612-.12v-3.67z"/></g></g></svg>