<?xml version="1.0" encoding="UTF-8"?>
<svg width="601px" height="769px" viewBox="0 0 601 769" version="1.1" xmlns="http://www.w3.org/2000/svg" xmlns:xlink="http://www.w3.org/1999/xlink">
    <!-- Generator: Sketch 48.2 (47327) - http://www.bohemiancoding.com/sketch -->
    <title>illustration</title>
    <desc>Created with Sketch.</desc>
    <defs>
        <path d="M64.261395,6.30045796 C145.634982,2.10015265 225.59463,1.15208972e-14 304.140338,0 C381.742921,0 459.345504,2.05002096 536.948087,6.15006289 L536.948087,6.1500633 C567.959002,7.78848885 592.595319,32.8187846 593.741583,63.8517898 C598.580528,194.857379 601,311.206083 601,412.897904 C601,510.71988 598.761168,608.541856 594.283505,706.363832 L594.283504,706.363832 C592.879848,737.029018 568.556755,761.688921 537.913771,763.514135 C476.513396,767.171378 404.794095,769 322.755868,769 C234.681957,769 148.715065,766.892411 64.855194,762.677234 L64.855194,762.677235 C33.9003518,761.121304 9.22492511,736.244667 7.92043016,705.27821 C2.64014339,579.933322 4.86595223e-15,465.722169 0,362.64475 C0,262.822395 2.47603097,163.022963 7.42809291,63.2464557 L7.42809177,63.2464557 C8.95440678,32.4935324 33.5115555,7.88768937 64.261395,6.30045796 Z" id="path-1"></path>
        <radialGradient cx="50%" cy="44.1601562%" fx="50%" fy="44.1601562%" r="64.1551863%" gradientTransform="translate(0.500000,0.441602),scale(0.649871,1.000000),rotate(90.000000),translate(-0.500000,-0.441602)" id="radialGradient-3">
            <stop stop-color="#52E2AC" offset="0%"></stop>
            <stop stop-color="#75EABE" offset="35.3455835%"></stop>
            <stop stop-color="#8EFBD2" offset="58.7771046%"></stop>
            <stop stop-color="#F4F4F4" offset="100%"></stop>
        </radialGradient>
        <linearGradient x1="50%" y1="0%" x2="50%" y2="22.4265253%" id="linearGradient-4">
            <stop stop-color="#F4F4F4" offset="0%"></stop>
            <stop stop-color="#FFFFFF" stop-opacity="0" offset="100%"></stop>
        </linearGradient>
        <path d="M0,81.2143129 L0,13.8004139 C0.890292678,13.17694 1.6194407,13.8125568 2.33175899,14.160513 C17.048095,21.3490957 31.8027187,28.4593778 46.515268,35.6563349 C55.6294079,40.1148641 64.8441054,44.3803634 73.9578245,48.8380551 C82.5670725,53.0487021 91.1876806,57.2438565 99.7859893,61.479208 C109.26281,66.1479345 118.820413,70.6638283 128.322058,75.2827272 C139.770481,80.8483517 151.224795,86.4047644 162.675742,91.9662017 C175.520192,98.2042903 188.337293,104.498487 201.210774,110.679211 C206.563048,113.249314 211.943092,115.770845 217.249085,118.443953 C217.740513,119.751196 216.910386,120.747749 216.365524,121.75184 C212.830019,128.267958 209.820022,135.018141 207.430621,142.022906 C206.510455,144.719881 205.859565,147.516092 204.943187,150.223953 C204.695369,150.956713 204.733236,151.959547 203.57493,152.035754 C202.48815,150.440431 200.67685,150.250333 199.044367,149.661194 C190.749835,146.668603 182.370312,143.920126 174.006358,141.135639 C160.322525,136.579548 146.711482,131.814934 133.05037,127.194779 C118.395883,122.238392 103.773373,117.185699 89.1251973,112.209633 C78.3242978,108.54039 67.5717838,104.732133 56.756579,101.103925 C44.883205,97.1206433 33.008148,93.1398735 21.1680127,89.0598671 C15.0819619,86.962918 9.03461942,84.7545894 2.89681715,82.8054484 C1.84411758,82.4708912 0.726623561,82.1736001 0,81.2143129 Z M673,23.2805017 L673,89.1789037 C671.116976,90.9459102 668.591878,91.2492118 666.312118,92.043372 C653.251309,96.5937412 640.159886,101.054556 627.086496,105.566907 C613.353838,110.306523 599.619502,115.040647 585.878037,119.751538 C575.304583,123.376372 564.771388,127.121598 554.178223,130.682224 C546.695612,133.197347 539.308201,135.984511 531.813428,138.44852 C521.928179,141.69824 512.172099,145.328989 502.277624,148.5352 C494.033835,151.206197 485.954864,154.348621 477.692622,156.948229 C476.335502,157.374879 475.32647,158.043156 474.717947,159.323951 C473.563388,159.364081 473.655233,158.379407 473.52145,157.713242 C471.974351,149.99637 469.571293,142.547316 466.68301,135.246533 C465.703334,132.771119 464.282469,130.501426 463.35228,128.001511 C463.058293,127.212842 462.647299,126.457545 463.051163,125.588616 C465.471416,123.626026 468.384862,122.563203 471.130135,121.217355 C478.283112,117.711222 485.415538,114.163269 492.571451,110.663472 C497.967217,108.025002 503.405342,105.474818 508.770493,102.774251 C518.822657,97.7135916 528.972536,92.8552741 539.075444,87.9006437 C548.990889,83.0381019 558.885364,78.1328953 568.812552,73.2940094 C579.998304,67.8421839 591.149248,62.3172788 602.330387,56.8578496 C611.498493,52.381405 620.700988,47.9712811 629.845609,43.4496369 C640.680758,38.0920124 651.594751,32.8965993 662.366993,27.4080227 C665.105556,26.0127508 667.890671,24.7070331 670.663204,23.3776596 C671.413479,23.0177529 672.191851,22.5830769 673,23.2805017 Z M0,218.937286 L0,160.821205 C0.395746549,160.495086 0.859696227,160.333281 1.36448358,160.372164 C4.92662353,160.647275 8.51949699,160.188618 12.0664807,160.837093 C14.4194886,161.267319 16.797757,161.353448 19.1865505,161.313728 C25.6296411,161.206694 32.0222109,162.125263 38.4514083,162.397865 C42.5499112,162.571795 46.7309314,162.496955 50.7814394,163.07937 C57.3937748,164.030551 64.0684193,163.503743 70.6735976,164.432764 C74.747682,165.005981 78.9240711,165.187019 83.0145748,165.287363 C89.8138373,165.453349 96.6063637,165.840511 103.347106,166.458465 C110.037328,167.072238 116.805015,166.532887 123.427455,167.902587 C123.633327,167.945233 123.84762,167.959449 124.056018,167.946487 C131.149143,167.509153 138.198063,168.484166 145.229721,168.990904 C151.997408,169.478411 158.797513,169.408588 165.544992,170.225976 C170.268269,170.797938 175.050908,170.92964 179.785973,171.142872 C185.803426,171.413383 191.789303,172.201504 197.818123,172.193979 C198.726235,172.193142 199.652029,172.190216 200.443943,172.760088 C201.167654,173.567441 201.176495,174.557923 201.038405,175.522901 C199.654555,185.179369 200.546248,194.791936 201.536877,204.40743 C201.661074,205.61616 202.147337,206.882171 201.342372,208.058708 C195.588891,207.552806 189.91077,208.679171 184.186338,208.860626 C176.287826,209.111487 168.402787,209.630351 160.52701,210.320218 C155.996554,210.716996 151.432838,210.948624 146.904908,211.113774 C140.602855,211.343312 134.32943,211.913602 128.040849,212.247247 C121.684065,212.583819 115.326439,213.045821 108.970496,213.44887 C101.845374,213.900838 94.7253046,214.446042 87.5862895,214.711536 C81.4370617,214.939819 75.2840449,215.318619 69.1520784,215.714979 C60.5702724,216.270218 51.9552068,216.518152 43.4121334,217.350173 C37.3471071,217.940951 31.2450321,217.652879 25.2077922,218.623292 C20.8537381,219.323193 16.3818021,218.583154 11.9944885,219.289745 C8.93881993,219.781851 5.84820778,219.747148 2.76264772,219.693213 C1.77959645,219.676071 0.783072959,219.685269 0,218.937286 Z M673,163.262879 L673,219.940938 C672.015915,220.838619 670.747249,220.886545 669.630304,220.627743 C664.682216,219.483346 659.625996,219.971361 654.631805,219.532939 C647.418393,218.899895 640.16768,218.628591 632.942114,218.130574 C625.988554,217.651311 619.014876,217.476693 612.077243,216.784054 C607.431757,216.32021 602.741844,216.084746 598.109351,215.931799 C591.211114,215.704253 584.340959,215.050788 577.457391,214.718222 C571.07844,214.409826 564.651709,214.356065 558.298743,213.495059 C556.980622,213.316273 555.666273,213.217087 554.338512,213.198333 C546.884109,213.093728 539.477484,212.195631 532.037749,211.858063 C525.633231,211.568005 519.242126,211.077073 512.844733,210.680743 C505.417572,210.220651 497.96694,210.11813 490.570374,209.152936 C487.804625,208.79203 484.991516,209.097508 482.201877,209.022077 C480.040913,208.963732 477.877434,208.870796 475.879507,207.888932 C475.148149,206.894982 475.371957,205.792261 475.500206,204.692456 C476.275991,198.037369 476.941128,191.378113 476.953702,184.664681 C476.960408,181.337345 476.750011,178.041266 476.284373,174.749354 C476.094094,173.402834 475.791492,171.990883 476.785636,170.768971 C477.778104,170.729796 477.882883,171.550378 477.977184,172.171336 C478.240389,173.902101 479.339312,174.26384 480.843102,174.111726 C483.411447,173.851674 485.987336,173.323234 488.550652,173.407835 C495.540256,173.638298 502.455257,172.601006 509.413427,172.318449 C518.526275,171.948375 527.657983,171.446607 536.754485,170.711459 C545.50773,170.003817 554.274807,169.652497 563.025538,169.045291 C572.26412,168.404329 581.531202,168.120522 590.742542,167.338281 C601.923729,166.388507 613.133416,166.026768 624.317956,165.20827 C630.62901,164.74651 636.983234,164.365184 643.31692,164.026782 C649.427218,163.700467 655.586972,163.663793 661.670446,162.730272 C664.786995,162.251842 667.944199,162.523564 671.085057,162.548152 C671.799232,162.55357 672.465207,162.750693 673,163.262879 Z M502.276385,0 L574.103374,0 C574.408324,0.864530242 573.766501,1.30398568 573.268333,1.75486104 C567.342816,7.11672498 561.160655,12.1884384 555.312426,17.6323565 C551.926056,20.7834085 548.451478,23.8371797 545.016804,26.9269026 C540.332088,31.1404301 535.547823,35.2503324 530.829924,39.4321379 C523.120073,46.2654797 515.415684,53.1055889 507.678531,59.9076316 C501.204861,65.5994043 494.711449,71.2738357 488.322628,77.0565448 C481.56837,83.1700087 474.632236,89.0724155 467.89604,95.2078733 C463.289872,99.4040595 458.637499,103.56514 453.873396,107.587067 C453.271477,108.095042 452.88588,108.766702 452.302863,109.270024 C451.297285,109.583438 450.959152,108.790388 450.52441,108.171174 C444.490943,99.5732435 437.738786,91.6241332 429.750029,84.7869848 C429.194315,84.3111548 428.370194,83.9617898 428.594076,82.9640272 C432.63991,79.0812544 436.169093,74.7205368 439.862933,70.5141995 C444.857218,64.8270794 449.896029,59.1797174 454.865532,53.4710263 C459.46792,48.1844492 464.130794,42.9515881 468.752083,37.6819295 C472.72735,33.1490671 476.687075,28.6026701 480.679564,24.0854573 C485.412164,18.7312066 490.0994,13.3359288 494.855523,8.0036721 C497.276639,5.28911481 499.499075,2.38126481 502.276385,0 Z M114.592417,0 L185.728865,0 C187.420144,0.955476132 188.53686,2.52900353 189.767647,3.93465997 C200.384657,16.0630221 211.155304,28.055068 221.822404,40.1384121 C231.467917,51.0655923 241.275066,61.8501452 250.77999,72.900599 C251.973314,74.2877433 253.279446,75.5398336 254.837293,76.515084 C254.950522,77.7999911 253.85864,78.2379703 253.115285,78.8875762 C252.233025,79.6583522 251.264054,80.3285739 250.358222,81.0741062 C243.060633,87.0720224 236.468094,93.7595139 230.652163,101.206001 C230.257335,101.711297 229.866295,102.212806 229.103998,102.002021 C221.07947,95.0107626 213.103349,87.9627062 205.134383,80.9079181 C196.05754,72.8732516 186.819483,65.022023 177.779262,56.9494908 C166.075843,46.4981555 154.246146,36.1923925 142.451807,25.8445565 C133.49998,17.9903828 124.568778,10.1109654 115.709554,2.15118867 C115.115207,1.61728325 113.990493,1.21464535 114.592417,0 Z M605.25173,0 L663.604658,0 C663.825476,1.1249044 662.913239,1.46008173 662.239452,1.87087574 C655.412999,6.03489119 648.493349,10.0366281 641.590071,14.0672523 C631.900547,19.7253345 622.250064,25.4522364 612.573553,31.1319841 C602.959173,36.774773 593.326322,42.3882499 583.719079,48.0446328 C571.027527,55.5175155 558.278042,62.8892927 545.604961,70.3944611 C536.011992,76.0754832 526.392575,81.7123247 516.765181,87.3334482 C505.743614,93.7680883 494.817763,100.373928 483.745819,106.715959 C475.960951,111.175219 468.378009,115.991747 460.444949,120.185499 C460.01213,120.414049 459.608278,120.70632 459.112907,120.795531 C457.331254,119.148531 455.804002,117.348175 455.601236,114.758515 C460.923947,110.518883 466.459079,106.559203 471.797323,102.336563 C483.856228,92.7978158 496.134692,83.5517643 508.353543,74.2245736 C514.826101,69.2831507 521.172296,64.1679793 527.710763,59.3174663 C533.458317,55.053195 539.088325,50.6283445 544.753177,46.2608437 C552.307572,40.4370845 559.860288,34.604829 567.405448,28.767051 C579.16923,19.6654359 591.011936,10.6674752 602.770261,1.55778868 C603.553618,0.950731133 604.469213,0.590489846 605.25173,0 Z M0,138.199012 L0,105.540654 C0.697646764,104.94108 1.44708022,105.216164 2.19272441,105.410021 C11.3459173,107.789475 20.467533,110.290352 29.6333568,112.616213 C42.5295067,115.889167 55.3730278,119.358908 68.259494,122.667869 C78.0265487,125.175864 87.7527635,127.85343 97.5257126,130.343002 C106.888999,132.728318 116.211867,135.262691 125.562523,137.69197 C134.306896,139.963401 143.046217,142.260791 151.783853,144.560274 C163.972251,147.76833 176.174123,150.923211 188.355785,154.154295 C192.484405,155.249606 196.651339,156.20256 200.742909,157.434785 C201.408137,157.635341 202.129361,157.70317 202.651438,158.242451 C203.054785,160.846327 202.885531,163.342598 201.252777,165.563785 C197.530029,165.662179 193.873804,164.965049 190.200738,164.548445 C184.432206,163.893603 178.700724,162.943999 172.934718,162.231377 C167.938354,161.614217 162.947885,160.816181 157.955311,160.140404 C150.808326,159.173214 143.676499,158.084184 136.50341,157.286566 C131.919656,156.777431 127.338007,156.178694 122.775305,155.486588 C115.018668,154.31005 107.219508,153.446697 99.4573984,152.320402 C91.7016042,151.194526 83.9163378,150.292235 76.1575964,149.181013 C65.7568915,147.691708 55.3443978,146.253903 44.9205362,144.935845 C38.748657,144.155813 32.608355,143.128331 26.426792,142.479769 C19.3151738,141.733651 12.2742885,140.516081 5.18035352,139.667382 C3.39771236,139.454265 1.51486606,139.420351 0,138.199012 Z M219.267864,114.420469 C216.74347,112.058359 213.552358,110.761697 210.653328,109.014041 C200.761927,103.051597 190.795097,97.217042 180.83581,91.3710529 C173.391697,87.0012765 165.904003,82.7081481 158.456118,78.3451473 C151.129761,74.0532893 143.834832,69.7068038 136.515598,65.4022417 C130.175698,61.6735974 123.773778,58.04955 117.49087,54.2256252 C113.933922,52.0608518 110.291067,50.031165 106.7161,47.9112793 C101.233588,44.660308 95.7242579,41.4351684 90.2174416,38.2138399 C85.1233957,35.2338888 80.0197114,32.2712998 74.9206367,29.2998181 C66.8106439,24.5743278 58.6910129,19.8645059 50.595268,15.114031 C46.5819677,12.7591201 42.6260781,10.3042705 38.6190636,7.93877279 C34.804815,5.68676481 30.8866404,3.61346073 27.2257663,1.10059585 C26.7673189,0.785958409 26.2233841,0.580999428 26.0046368,0 L82.9962669,0 C84.7458261,0.785958409 86.1140443,2.11903873 87.5987601,3.28273146 C97.3581577,10.9326984 107.271349,18.3768594 117.112043,25.9179949 C124.398172,31.5018567 131.615994,37.1759175 138.924752,42.7288661 C143.777002,46.4155869 148.629672,50.1065425 153.464741,53.8127429 C157.346039,56.7884594 161.146878,59.8899461 165.091872,62.7813922 C170.117612,66.4659958 174.860489,70.5156295 179.933582,74.1468759 C184.079723,77.114123 188.02807,80.3862678 192.066094,83.5212085 C199.094503,88.9771828 206.194571,94.337453 213.233456,99.7786058 C216.05999,101.963282 218.961534,104.04929 221.732333,106.30765 C222.489567,106.924645 223.313432,107.490399 223.639876,108.496561 C223.081694,110.784141 221.350992,112.367915 220.201521,114.301474 C220.023003,114.601714 219.609814,114.609336 219.267864,114.420469 Z M671.959815,111.750747 L671.959815,142.737288 C671.295812,143.4318 670.431687,143.7239 669.511461,143.754473 C667.343612,143.827601 665.234796,144.303141 663.09751,144.568386 C650.734327,146.103253 638.397521,147.832302 626.044386,149.437818 C612.646681,151.179675 599.25107,152.944255 585.862995,154.750977 C578.630136,155.72726 571.391415,156.696519 564.161904,157.693046 C557.337243,158.633384 550.47574,159.389456 543.652753,160.365738 C535.866418,161.480014 528.059569,162.462081 520.262348,163.471003 C511.074322,164.659647 501.893832,165.924311 492.702457,167.094363 C488.221065,167.664515 483.739673,168.240865 479.254932,168.787467 C478.137933,168.923808 477.159512,169.541473 476.055492,169.738547 C475.575283,169.70095 475.267564,169.396043 475.164573,168.987434 C474.612772,166.796892 473.989798,164.607589 474.535319,162.314172 C478.96689,161.202788 483.45205,160.267408 487.835474,158.982499 C495.589991,156.708913 503.461734,154.872031 511.271095,152.80998 C519.208987,150.714464 527.155671,148.61936 535.145896,146.699434 C540.966179,145.300908 546.721569,143.640443 552.521756,142.151849 C560.478907,140.109629 568.428521,138.03725 576.379392,135.97148 C589.250415,132.626999 602.126881,129.303176 614.990369,125.931014 C624.41829,123.459528 633.881798,121.116532 643.291298,118.58018 C652.02884,116.225203 660.889051,114.337503 669.563375,111.750747 C670.342511,111.518554 671.162676,111.147955 671.959815,111.750747 Z M671.959815,262.319637 C666.957068,262.858888 662.154245,264.381554 657.24157,265.367081 C656.117362,265.592755 655.925434,266.911723 655.359752,267.767509 C654.708208,268.752191 654.081918,269.754201 653.445105,270.748603 C644.199746,268.692603 635.147998,265.890696 625.97335,263.566338 C616.800384,261.242826 607.653093,258.817464 598.494859,256.439012 C590.964223,254.483171 583.483672,252.314757 575.948406,250.376665 C565.627242,247.722248 555.352797,244.892871 545.035841,242.223663 C537.706813,240.32741 530.381572,238.410872 523.066433,236.456298 C522.591665,236.329515 522.112688,236.21372 521.715784,235.898875 C521.283526,235.429355 521.273004,234.841081 521.461985,234.315776 C522.12784,232.460939 521.113485,231.810118 519.565437,231.362997 C511.575605,229.058502 503.611026,226.666526 495.61951,224.369638 C492.596649,223.3241 489.486242,222.575234 486.4255,221.656902 C485.326546,221.326843 484.736452,221.663663 484.422466,222.777665 C484.150989,223.741216 484.177505,224.923258 482.962805,225.374606 C478.898652,225.055958 475.03779,224.000277 471.386534,222.169951 C470.803596,219.810939 471.768285,217.622239 472.169397,215.377755 C472.25989,214.872313 472.675312,214.343627 473.40893,214.570146 C474.203578,215.887846 475.365246,216.285522 476.893933,216.416109 C481.773779,216.831958 486.596804,217.738035 491.452659,218.379557 C497.275308,219.148708 503.110162,219.86292 508.911345,220.735611 C514.298789,221.546178 519.711066,222.171641 525.100194,222.954738 C531.676243,223.910683 538.291435,224.651097 544.87043,225.601548 C552.690221,226.731186 560.513379,227.880686 568.350426,228.825221 C575.645362,229.70425 582.899892,230.864739 590.192724,231.752643 C595.250187,232.368387 600.311017,233.116407 605.358379,233.884291 C610.464666,234.661471 615.616409,235.23749 620.756788,235.829989 C625.623587,236.391216 630.460501,237.181075 635.309201,237.881763 C640.707588,238.661902 646.12239,239.32371 651.525828,240.063279 C656.792897,240.784252 662.081431,241.362806 667.316932,242.288745 C668.867927,242.562597 670.591909,242.159849 671.959815,243.302165 L671.959815,262.319637 Z M399.646475,0 L445.949881,0 C446.624226,0.960973887 445.962088,1.76073315 445.569772,2.53018574 C441.235352,11.0244709 436.950182,19.5478 432.843491,28.1494212 C426.226735,42.0096701 419.229027,55.682186 412.650997,69.5592719 C412.441369,70.0008232 412.302459,70.4827834 411.896672,70.8047917 C410.356453,70.905393 409.324308,69.7933067 408.166302,69.1084602 C400.076676,64.325058 391.631777,60.3161595 382.785721,57.1486919 C381.922373,56.8393114 381.032085,56.5905442 380.714696,55.5719034 C380.609882,53.108224 381.737581,50.9290905 382.493589,48.7112318 C386.178919,37.9010122 389.793531,27.065537 393.645554,16.3121424 C395.393297,11.4323481 396.989922,6.50077999 398.683364,1.60204407 C398.895518,0.989175924 399.186388,0.450811666 399.646475,0 Z M240.539062,0 L286.822143,0 C287.876038,0.537834934 288.185158,1.58114102 288.519331,2.58356654 C292.630882,14.9214062 296.856654,27.219217 301.112575,39.5080852 C302.199165,42.6452427 303.44159,45.7351321 304.343473,48.9353139 C304.781252,50.4892012 305.526027,51.7943984 306.849554,52.7401873 C306.93108,53.9299821 306.031744,54.0628439 305.206716,54.2514907 C294.647805,56.6681282 284.664247,60.6186387 275.062843,65.5958475 C274.143126,66.0723615 273.292622,66.7924557 272.139791,66.6195649 C267.800221,56.5752953 262.62883,46.9287595 258.008165,37.0156483 C254.031642,28.4860887 249.660226,20.1400659 245.499844,11.6948225 C243.84342,8.33197016 242.329241,4.89970605 240.598933,1.5721984 C240.33737,1.06970812 240.071561,0.542093326 240.539062,0 Z M323.051512,0 L363.458826,0 C364.037576,0.598673276 364.09019,1.3305678 364.057359,2.10358 C363.623822,12.2658122 362.829987,22.4074855 362.237767,32.5598494 C361.959546,37.3319662 361.667856,42.1016159 361.284828,46.8663315 C361.213694,47.7487167 361.268833,48.6557725 360.673667,49.4172718 C359.833953,50.0953022 358.859547,50.0504839 357.883458,49.8679215 C348.153714,48.0509316 338.318321,48.4131783 328.496398,48.4851342 C327.642372,48.4913019 326.857376,48.8021514 326.040391,48.9719674 C324.871104,49.2141505 323.694662,49.4374195 322.621764,48.6541278 C322.158763,47.7491279 322.781288,47.3038235 323.480419,47.1701911 C325.155639,46.8494733 325.315585,45.7199709 325.220459,44.4062613 C324.900147,39.979533 324.613507,35.5495152 324.260364,31.1260763 C323.793155,25.2721536 323.636156,19.4017838 323.13359,13.5515617 C322.818328,9.87728671 322.777079,6.18862052 322.500542,2.51228964 C322.433196,1.6130462 322.35154,0.729838644 323.051512,0 Z M484.72643,0 C477.741043,9.15307709 470.751443,18.3032113 463.772375,27.4604925 C458.057863,34.9580112 452.366518,42.4723461 446.646109,49.9648199 C439.865443,58.845474 433.083093,67.7257077 426.240927,76.5592763 C425.596854,77.3908391 425.380338,78.0672722 425.768298,78.9837571 C425.259443,79.3137757 424.793975,79.0703607 424.428341,78.7722929 C422.972121,77.583385 421.438816,76.5042031 419.900455,75.427964 C419.427405,75.0971046 419.073987,74.6712334 419.233636,74.0217063 C424.725735,65.1591297 429.756999,56.0262321 435.061647,47.0543499 C439.298878,39.8876907 443.49188,32.6924438 447.710155,25.514854 C451.252344,19.4874947 454.942809,13.5362289 458.188868,7.33271958 C459.289562,5.22900849 460.812758,3.36114511 461.812355,1.18932827 C462.096691,0.570911202 462.730654,0.353981762 463.2433,0 L484.72643,0 Z M260.593962,72.7415732 C260.720651,71.5543825 259.867836,70.8085189 259.224612,70.0250065 C254.619156,64.416179 250.358907,58.55134 245.924354,52.8157617 C240.463107,45.7520191 234.732327,38.8857233 229.394793,31.7345519 C224.936858,25.7617864 220.264657,19.9492374 215.791417,13.9877665 C212.256018,9.27623431 208.439608,4.74206955 204.916538,0 L226.598274,0 C228.019066,1.15205183 228.5322,2.89602571 229.44836,4.36349042 C233.112148,10.2329309 236.509379,16.2604962 240.066034,22.1935213 C243.084897,27.2292511 246.00768,32.3218724 249.130275,37.2965276 C251.879605,41.6775874 254.369603,46.2058957 257.019451,50.6434287 C260.062972,55.7398148 263.119672,60.8299262 266.077316,65.9752557 C266.625311,66.9281875 267.535519,67.2226844 268.339444,67.7476753 C268.466983,68.3036219 268.146434,68.6704881 267.750211,68.9599651 C265.743587,70.4282665 263.489112,71.5029292 261.37663,72.8039028 C261.13388,72.9536611 260.843515,72.9051361 260.593962,72.7415732 Z M387.989181,0 C387.35852,4.89054913 385.643038,9.50665239 384.460392,14.2572299 C382.503053,22.1227045 380.357556,29.9403942 378.320708,37.7859937 C377.094769,42.5095072 375.935851,47.2507815 374.717405,51.9768322 C374.536741,52.6792276 374.470136,53.3435641 374.696591,54.0311589 C371.945826,54.5309971 369.445244,53.320306 366.844756,52.8141247 C366.230745,52.6944511 366.003874,52.136679 366.232411,51.4846057 C367.717691,49.5529128 367.78596,47.1729725 368.081518,44.9237005 C369.380721,35.038575 370.521323,25.1331515 371.997028,15.2708612 C372.651418,10.8966424 373.095586,6.48986229 373.898586,2.13594152 C374.039705,1.37265218 374.094653,0.594985095 374.668284,0 L387.989181,0 Z M311.291502,51.4383915 C311.850467,50.612116 311.832587,49.7065046 311.599295,48.8008931 C310.933901,46.2233188 310.242113,43.6520744 309.557988,41.079142 C308.105872,35.6171995 306.679725,30.1485049 305.1927,24.6962684 C303.040282,16.8048734 300.841035,8.92613836 298.670736,1.03938534 C298.578782,0.705583554 298.577079,0.34730578 298.53323,0 L312.156131,0 C313.510758,1.47699907 313.373252,3.39498785 313.644432,5.16654273 C314.801953,12.72498 315.763645,20.3125352 316.827083,27.8836324 C317.557611,33.0818251 318.450336,38.2719998 318.892655,43.5140805 C319.075712,45.6852691 319.472479,47.8222758 320.377125,49.8360585 C320.181296,50.8416839 319.371585,51.1370837 318.533351,51.2273916 C316.672122,51.4291075 314.793865,51.4438775 312.973505,51.9975411 C312.378354,52.178579 311.721901,52.0106231 311.291502,51.4383915 Z M644.914992,288.407057 L642.343797,292.972193 C640.356829,294.508419 637.920715,294.197285 635.672872,294.459382 C628.635115,295.280337 621.598203,296.115242 614.55918,296.930279 C612.946221,297.117129 611.638039,297.760111 610.414705,298.781021 C602.324156,305.531707 594.01832,312.017759 585.943812,318.789159 C584.948851,319.622796 584.057734,320.742204 582.55495,320.732903 C572.485876,315.453342 562.133553,310.74363 551.985962,305.617522 C542.088695,300.617813 532.039039,295.927124 522.10167,291.006889 C518.141666,289.046658 514.13185,287.179429 510.142297,285.272886 C509.646716,285.036153 509.044336,284.965133 508.758554,284.392325 C508.496833,283.531632 508.763619,282.714905 509.0055,281.91255 C512.53873,270.203583 515.868916,258.43501 519.362044,246.714207 C519.597593,245.924111 519.733941,245.032136 520.699353,244.715084 C530.05756,248.346394 539.586307,251.516498 549.110833,254.656588 C556.777563,257.184132 564.335384,260.020274 572.042639,262.447629 C580.13952,264.998001 588.08148,268.083135 596.127283,270.827543 C606.435283,274.343023 616.710356,277.952773 627.006537,281.499113 C632.384054,283.351124 637.825314,285.019666 643.120939,287.1101 C643.822519,287.38657 644.649894,287.513814 644.914992,288.407057 Z M7.2812983,241.061387 C10.712274,239.680914 14.4367687,240.193744 17.9833858,239.419495 C21.5056131,238.651083 25.1396972,238.379658 28.7287863,237.921447 C33.8296241,237.269777 38.964944,236.818653 44.0258329,235.944756 C46.9824686,235.434844 49.9584479,235.247223 52.915504,234.837793 C56.3578336,234.361236 59.7728298,233.717905 63.2559493,233.455652 C66.5023192,233.211328 69.7112634,232.507541 72.944177,232.058502 C77.6261825,231.407666 82.3439318,230.964047 86.9901937,230.124756 C90.1507788,229.553971 93.3517332,229.450571 96.50559,228.881455 C99.442882,228.351947 102.431897,228.112209 105.387271,227.671508 C109.210587,227.101141 113.068805,226.858484 116.890018,226.209733 C121.681778,225.396292 126.528204,224.874289 131.366221,224.36813 C133.515469,224.142985 135.652943,223.744811 137.756355,223.393752 C143.250374,222.476494 148.796957,221.994934 154.305693,221.269466 C159.192069,220.625718 164.057419,219.786844 168.971128,219.296111 C173.604774,218.83373 178.208985,218.071155 182.822026,217.413231 C186.60371,216.874551 190.37278,216.259154 194.189787,215.98898 C196.752822,215.80803 199.219138,214.849079 201.852398,215.119253 C203.044976,215.241415 202.771642,214.163221 202.91756,213.47486 C203.059694,213.47903 203.274577,213.469023 203.307798,213.549075 C204.357401,216.071117 205.258563,218.624012 204.788849,221.428319 C203.171551,222.728323 201.094211,222.622005 199.232594,223.121076 C184.629816,227.036933 170.010639,230.898171 155.366651,234.655592 C144.730584,237.384851 134.126897,240.243359 123.461394,242.870052 C116.194908,244.659955 109.005376,246.794664 101.753608,248.660033 C81.213169,253.942187 60.6874483,259.276874 40.1798096,264.680356 C35.7152099,265.856948 31.2779436,267.14361 26.7759181,268.178444 C25.6232886,268.443197 24.4715001,268.809684 23.2557934,268.60747 C17.752103,259.527452 12.4220849,250.348204 7.2812983,241.061387 Z M505.249048,294.699441 C509.695192,296.703753 513.628674,299.593389 517.878837,301.92583 C521.282837,303.793038 524.6595,305.695775 528.015977,307.646582 C535.896821,312.227447 543.858412,316.672044 551.760704,321.216961 C557.177496,324.332318 562.549709,327.52375 567.941267,330.681324 C564.128064,333.826776 560.716915,337.507687 555.554982,338.693971 C552.469765,339.4029 549.570436,340.824101 546.452836,341.502933 C545.524664,341.730325 544.844621,341.234995 544.161634,340.734649 C540.162544,337.805721 536.269015,334.739271 532.313243,331.753077 C526.906964,327.672558 521.45064,323.658083 516.108707,319.491038 C511.649527,316.01244 507.02044,312.750784 502.567989,309.260063 C502.00444,308.818237 501.551499,308.304097 501.369397,307.593914 C502.505746,303.249219 503.719478,298.927514 505.249048,294.699441 Z M206.190691,228.053631 C207.595765,230.647979 208.125782,233.558444 209.152031,236.292913 C212.126463,244.218611 215.843342,251.769527 220.166679,259.035559 C220.306891,259.271486 220.402758,259.53358 220.51932,259.783434 C219.252768,261.704611 217.025429,262.101339 215.161288,262.959369 C209.606875,265.51531 204.145795,268.263285 198.653464,270.939511 C186.461798,276.880725 174.252394,282.786486 162.065373,288.737829 C147.48335,295.858253 132.903015,302.982898 118.312968,310.087706 C115.285323,311.561931 112.248809,313.023072 109.218208,314.49603 C108.213497,314.984343 107.192316,315.48785 106.032191,315.526257 C100.371774,307.667243 94.6889746,299.823845 89.0572761,291.943729 C84.6498967,285.777984 80.3058659,279.567502 75.9335394,273.376434 C82.9859378,270.610311 90.1730577,268.243871 97.42057,266.042874 C100.018289,265.254483 102.504936,264.106926 105.079849,263.234546 C110.721261,261.323499 116.396459,259.512055 122.03956,257.60565 C126.318975,256.160125 130.547289,254.560552 134.840218,253.158498 C138.880175,251.839166 142.831022,250.275889 146.934328,249.114404 C151.02792,247.956296 154.977922,246.298479 159.007321,244.906976 C167.096948,242.114264 175.203891,239.371776 183.291407,236.573577 C188.75671,234.682788 194.162464,232.607985 199.677179,230.875887 C201.545121,230.289236 203.328597,229.470035 205.225679,229.001136 C205.79075,228.861015 206.084265,228.589214 206.190691,228.053631 Z M230.914981,275.955307 C238.270661,284.397762 246.117585,292.310563 255.217352,298.894179 C255.802487,299.317734 256.671806,299.485303 256.925811,300.33199 C251.918215,303.48928 248.820271,308.512144 244.951508,312.772106 C239.787568,318.459353 234.592611,324.123444 229.636571,329.997207 C226.122409,334.162437 222.424241,338.161783 218.86523,342.286174 C214.895871,346.886747 210.856094,351.428377 206.784881,355.939693 C201.777285,361.488843 196.946989,367.194615 191.956578,372.758501 C189.580831,375.408031 187.325799,378.166185 184.93077,380.796769 C184.331384,381.455257 183.799063,382.507406 182.557119,382.067852 C175.589992,372.324421 168.879804,362.438261 164.33034,351.240178 C162.776128,347.415138 160.885339,343.728195 159.148377,339.978519 C159.74944,338.448503 161.195929,337.713809 162.326799,336.730708 C172.862157,327.57419 183.090279,318.068639 193.740065,309.038008 C198.518805,304.985192 202.988631,300.54082 207.738449,296.440007 C214.392889,290.694658 220.812186,284.682798 227.540397,279.026286 C228.709828,278.043185 229.424061,276.567903 230.914981,275.955307 Z M273.241726,310.319553 C276.209189,311.166551 278.763994,312.936396 281.579579,314.124721 C286.415892,316.166364 291.250536,318.207164 296.302149,319.670237 C299.055146,320.46751 301.788533,321.336841 304.530682,322.173304 C304.907039,322.615765 304.77811,323.094045 304.604535,323.558419 C302.011343,330.49832 299.754453,337.557896 297.330663,344.557635 C294.790879,351.893645 292.371679,359.275164 289.80686,366.601903 C286.617005,375.716607 283.465119,384.845217 280.415459,394.007117 C279.025191,398.183531 277.405854,402.285359 276.238396,406.540994 C275.93464,407.650098 275.665516,408.885618 274.430046,409.451547 C271.275657,406.820799 268.069112,404.250309 264.993999,401.528118 C263.840728,400.507086 262.846428,400.387832 261.429873,400.835771 C249.379772,404.64431 237.306722,408.379948 225.238679,412.129914 C224.845215,412.252117 224.427133,412.292571 224.021151,412.37095 C223.308493,411.64742 223.75453,410.94791 224.075393,410.255984 C228.080967,401.620824 232.292244,393.086376 236.454703,384.528331 C240.55833,376.091225 244.692416,367.670553 248.763498,359.217012 C253.621508,349.130579 258.432369,339.018019 263.478974,329.023027 C266.315421,323.404611 268.986221,317.70023 271.813072,312.075071 C272.166063,311.372611 272.549513,310.725775 273.241726,310.319553 Z M262.814744,304.071508 C264.962306,304.674893 266.600513,306.14238 268.367852,307.389913 C266.722893,311.153744 264.449997,314.570661 262.437476,318.127702 C259.346321,323.592136 256.084677,328.959332 252.898994,334.369414 C249.28287,340.511966 245.78575,346.72543 242.1557,352.861613 C239.964673,356.565148 237.821753,360.302228 235.695714,364.045252 C231.720467,371.044687 227.619886,377.969389 223.596532,384.93995 C219.327995,392.334706 215.082246,399.74305 210.749564,407.10044 C209.318138,409.531389 207.956764,412.006498 206.521539,414.436598 C206.191113,414.994973 205.991085,415.893045 204.992631,415.300275 C200.639272,409.173859 196.424329,402.954026 192.434312,396.580905 C192.694687,394.469271 194.248915,393.082462 195.450773,391.595867 C199.351326,386.77176 202.892755,381.674623 206.759548,376.82886 C211.770806,370.54958 216.443198,364.00831 221.337562,357.637738 C227.431674,349.705413 233.505952,341.751857 239.497518,333.737155 C246.590506,324.249023 253.864532,314.899741 261.025039,305.463837 C261.500634,304.837098 262.000283,304.252396 262.814744,304.071508 Z M118.581144,325.382114 C121.964831,324.846259 124.522709,322.595412 127.362805,320.950057 C133.536147,317.374858 139.667803,313.726203 145.811547,310.098777 C153.516032,305.549528 161.209261,300.981596 168.91833,296.440415 C178.046823,291.06318 187.197826,285.725434 196.317981,280.334188 C203.428434,276.130569 210.525547,271.902324 217.585559,267.611661 C219.084603,266.700028 220.957574,266.262681 221.876342,264.500559 C223.157783,266.430826 224.439224,268.361094 225.720247,270.291786 C225.350072,271.352032 224.498835,271.996587 223.67136,272.620336 C212.252615,281.228412 201.070233,290.155368 189.677334,298.797838 C179.840173,306.259897 170.197687,313.98309 160.428891,321.53729 C157.447895,323.842486 154.396866,326.052995 151.497992,328.469438 C150.524197,329.281289 149.442018,329.904613 148.169331,330.105028 C141.980982,329.200188 135.783462,328.395981 129.622209,327.261004 C125.95964,326.586727 122.305409,325.730717 118.581144,325.382114 Z M309.934633,322.815642 C312.435472,323.651643 315.205049,323.255665 317.622838,324.473244 C318.502731,325.426556 318.325134,326.567904 318.164999,327.685112 C317.265941,333.961044 316.482299,340.253069 315.576427,346.528155 C313.027462,364.178605 310.840932,381.877758 308.326039,399.533714 C306.87545,409.718181 305.483635,419.914507 304.214476,430.125231 C304.07095,431.278014 304.081172,432.577329 302.743445,433.197765 C297.037342,428.758154 291.578682,424.023783 286.084674,419.331763 C285.941148,418.177286 286.284417,417.089723 286.587226,416.008089 C291.068463,399.980937 295.0842,383.829697 299.470889,367.778828 C302.966186,354.991071 306.11651,342.111413 309.830716,329.382523 C310.166745,328.231434 310.169726,326.970658 310.667168,325.893682 C311.272361,324.584626 309.38864,324.012046 309.934633,322.815642 Z M340.362409,436.631018 C332.660322,436.589021 324.958656,436.547864 317.256569,436.506287 C318.14047,434.386705 317.908041,432.068057 317.97445,429.914037 C318.150557,424.198262 318.778913,418.517764 319.014704,412.807869 C319.307236,405.718796 319.83598,398.633923 320.251241,391.546529 C320.642545,384.878685 321.116228,378.214621 321.501648,371.544676 C322.023246,362.513248 322.797448,353.499458 323.239609,344.45795 C323.54475,338.210914 323.897386,331.95254 324.398809,325.710544 C329.075542,325.325852 333.685866,326.605497 338.333597,326.369475 C344.074121,326.078016 349.844487,326.03098 355.532473,325.002476 C356.344081,324.855487 357.195619,324.927722 358.028663,324.898324 C358.736877,326.773905 358.490999,328.770856 358.633482,330.695573 C359.036134,336.124509 359.298404,341.566885 359.658606,347.000021 C360.301252,356.682401 360.834619,366.371501 361.550818,376.050521 C361.972804,381.757057 362.167405,387.483751 362.572999,393.195327 C363.112251,400.785843 363.572905,408.382658 364.068024,415.976113 C364.450081,421.826698 364.704786,427.687783 365.072553,433.542148 C365.141903,434.640366 365.17889,435.80074 364.326091,436.718371 C363.417392,437.386962 362.351919,437.343285 361.311665,437.346645 C355.316016,437.367643 349.319946,437.370583 343.324718,437.343705 C342.29455,437.339505 341.208483,437.450797 340.362409,436.631018 Z M442.078825,390.37022 C440.014703,395.833861 438.685428,401.516565 436.901287,407.063658 C436.585989,408.043809 436.232394,409.012276 435.896246,409.986167 C434.998432,410.56658 434.116361,410.15808 433.246204,409.921492 C430.112364,409.069441 426.99597,408.153966 423.886383,407.222635 C422.189897,406.713992 420.770414,406.855026 419.283702,407.833925 C416.760461,409.494632 414.135524,411.005124 411.572285,412.608248 C410.82127,413.078086 410.080041,413.751965 409.057554,413.212862 C406.869185,407.864803 405.009305,402.400327 403.120916,396.946284 C401.34401,391.811863 399.476896,386.706651 397.705096,381.573483 C395.957124,376.510832 394.23298,371.438166 392.430117,366.395126 C389.549452,358.334441 386.731337,350.251641 383.846842,342.192207 C381.92569,336.82412 380.052619,331.429327 378.293584,326.001988 C377.651923,324.022493 377.101746,321.99084 375.506955,320.469082 C376.707729,319.184747 378.502081,319.461392 379.976028,319.017424 C386.411357,317.078403 392.610531,314.601948 398.68333,311.800862 C401.806959,310.360053 404.844209,308.736483 407.920606,307.195531 C409.726021,308.969733 410.474484,311.3498 411.520374,313.522906 C416.931514,324.76689 422.65625,335.859825 428.24908,347.016184 C431.999476,354.496039 435.514994,362.086887 439.329216,369.536282 C439.966196,370.780977 440.637642,372.000219 441.514181,373.100959 C440.198096,377.60406 438.985408,382.140126 437.514865,386.594408 C436.932775,388.358595 437.205523,389.105079 439.087104,389.392156 C440.111293,389.548629 441.083145,390.033071 442.078825,390.37022 Z M363.466787,323.404082 C365.627682,322.753012 367.785293,322.090993 370.02499,321.774302 C369.800898,324.20676 370.576193,326.469081 371.209481,328.741088 C374.850784,341.807128 377.906409,355.031093 381.385183,368.140932 C385.562914,383.883266 389.589197,399.667292 393.558431,415.466479 C394.08624,417.565822 394.870154,419.594836 395.27032,421.732923 C395.282633,422.666151 394.579162,423.046012 393.954493,423.451562 C389.342941,426.445389 384.762172,429.490173 380.100959,432.402722 C379.308015,432.898394 378.390712,433.822779 377.424158,432.567385 C376.65625,430.357705 376.636139,428.020844 376.339401,425.736624 C374.527779,411.780732 372.672651,397.830314 370.792898,383.884529 C369.672024,375.572226 368.719013,367.238025 367.545604,358.936671 C366.065196,348.468594 364.888504,337.959246 363.350225,327.500012 C363.151989,326.155338 362.672201,324.744124 363.466787,323.404082 Z M463.914385,290.851027 C461.788533,298.412833 459.692171,305.983527 457.52769,313.533905 C455.847112,319.396262 454.081799,325.233222 452.354284,331.081611 C451.243591,331.394411 450.723135,330.50638 450.164465,329.865119 C440.99979,319.342929 431.909882,308.752168 422.673764,298.294316 C422.484771,298.080562 422.361823,297.83337 422.315301,297.548506 C425.541048,294.698596 428.836576,291.925299 431.977171,288.980999 C436.709457,284.544232 441.074141,279.739639 445.155545,274.672615 C445.412658,274.353466 445.565513,273.934001 446.040694,273.872626 C447.614522,274.3941 448.682018,275.67493 449.78648,276.766556 C453.906098,280.83719 458.508789,284.341483 462.664959,288.364288 C463.403898,289.079622 464.000781,289.757285 463.914385,290.851027 Z M444.387328,360.303911 C443.792668,357.194186 441.684785,354.833596 440.140176,352.251662 C437.899216,348.505991 435.770409,344.691569 433.502667,340.959313 C429.792843,334.855149 426.279704,328.630251 422.698772,322.447693 C419.988278,317.767596 417.278203,313.08666 414.620856,308.37638 C414.050049,307.364818 412.993388,306.6073 412.953632,305.306481 C414.163876,303.748265 416.066704,303.154659 417.559003,301.988827 C420.350682,305.018481 422.667386,308.429201 425.182869,311.673911 C431.211071,319.447383 437.213746,327.243074 443.052795,335.16327 C445.119249,337.96655 447.482405,340.54555 449.360124,343.493458 C447.866569,349.14613 446.252492,354.761911 444.387328,360.303911 Z M470.569211,228.053631 C470.647987,228.943342 471.448807,229.020761 472.062166,229.248514 C474.901477,230.302485 477.750055,231.332288 480.609166,232.334236 C480.893939,232.433776 481.271391,232.282623 481.605873,232.247805 C480.364412,237.564767 478.570254,242.729347 476.975774,247.947179 C475.18288,253.81509 473.676023,259.766974 471.562548,265.541899 C470.139101,265.522647 469.168091,264.500217 467.979709,263.97016 C464.495866,262.417263 461.035614,260.812343 457.592212,259.174653 C457.215603,258.995236 456.83773,258.813362 456.641422,258.418072 C458.884646,254.233729 461.446345,250.21037 463.385417,245.874466 C464.184974,244.087671 464.882164,242.257457 465.626114,240.446904 C467.701254,237.116635 468.467531,233.298908 469.837899,229.706477 C470.053585,229.139963 470.109613,228.515691 470.569211,228.053631 Z M466.546969,282.203352 C466.638122,281.162888 465.815177,280.73544 465.162127,280.234619 C460.228735,276.450299 455.284645,272.68091 450.331139,268.92304 C450.061959,268.718701 449.686648,268.654712 449.360124,268.525454 C450.523288,266.836566 451.685597,265.147679 452.848761,263.459218 C454.697499,263.904156 456.036122,265.264992 457.65334,266.130552 C460.971654,267.905612 464.269854,269.720771 467.491024,271.669881 C468.166327,272.078986 468.841629,272.469746 469.123648,273.269611 C468.265183,276.247667 467.405862,279.225723 466.546969,282.203352 Z M529.454405,347.602625 C527.190929,348.411537 524.927452,349.221281 522.664399,350.030193 C518.555449,351.054538 514.337345,351.434665 510.151817,351.948293 C508.000034,352.212801 506.410947,352.863257 505.498364,354.859545 C505.306286,355.280013 504.873898,355.594428 504.552358,355.957502 C502.738192,357.552037 500.350754,357.832765 498.172739,358.524811 C496.002341,359.214362 494.378561,360.341848 492.981975,362.141834 C489.44249,366.703766 486.009622,371.34139 482.520483,375.938673 C482.100365,376.492642 481.707747,377.076141 481.177628,377.533207 C480.238392,378.342119 479.67908,378.105476 479.525502,376.893148 C480.621702,371.94901 482.276789,367.160416 483.719068,362.313182 C487.713363,348.887319 491.774082,335.480172 495.73707,322.045159 C495.988379,321.192163 496.107264,320.260562 496.941154,319.69162 C499.186438,320.956351 500.876219,322.884016 502.797846,324.527626 C508.563153,329.458039 514.248075,334.479117 519.971497,339.456526 C523.116248,342.191023 526.142537,345.056943 529.454405,347.602625 Z" id="path-5"></path>
        <linearGradient x1="-28.9830692%" y1="144.085407%" x2="91.8278614%" y2="144.085405%" id="linearGradient-6">
            <stop stop-color="#ABF9DC" offset="0%"></stop>
            <stop stop-color="#27D694" offset="100%"></stop>
        </linearGradient>
        <rect id="path-7" x="16.6923441" y="0" width="125.192581" height="15.6331862" rx="2"></rect>
        <filter x="-28.0%" y="-223.9%" width="155.9%" height="547.8%" filterUnits="objectBoundingBox" id="filter-8">
            <feOffset dx="-20" dy="0" in="SourceAlpha" result="shadowOffsetInner1"></feOffset>
            <feComposite in="shadowOffsetInner1" in2="SourceAlpha" operator="arithmetic" k2="-1" k3="1" result="shadowInnerInner1"></feComposite>
            <feColorMatrix values="0 0 0 0 0   0 0 0 0 0   0 0 0 0 0  0 0 0 0.1 0" type="matrix" in="shadowInnerInner1" result="shadowMatrixInner1"></feColorMatrix>
            <feOffset dx="70" dy="0" in="SourceAlpha" result="shadowOffsetInner2"></feOffset>
            <feComposite in="shadowOffsetInner2" in2="SourceAlpha" operator="arithmetic" k2="-1" k3="1" result="shadowInnerInner2"></feComposite>
            <feColorMatrix values="0 0 0 0 1   0 0 0 0 1   0 0 0 0 1  0 0 0 0.2 0" type="matrix" in="shadowInnerInner2" result="shadowMatrixInner2"></feColorMatrix>
            <feMerge>
                <feMergeNode in="shadowMatrixInner1"></feMergeNode>
                <feMergeNode in="shadowMatrixInner2"></feMergeNode>
            </feMerge>
        </filter>
        <rect id="path-9" x="20.8654302" y="15.6331862" width="125.192581" height="15.6331862" rx="2"></rect>
        <filter x="-24.0%" y="-191.9%" width="147.9%" height="483.8%" filterUnits="objectBoundingBox" id="filter-10">
            <feOffset dx="-20" dy="0" in="SourceAlpha" result="shadowOffsetInner1"></feOffset>
            <feComposite in="shadowOffsetInner1" in2="SourceAlpha" operator="arithmetic" k2="-1" k3="1" result="shadowInnerInner1"></feComposite>
            <feColorMatrix values="0 0 0 0 0   0 0 0 0 0   0 0 0 0 0  0 0 0 0.1 0" type="matrix" in="shadowInnerInner1" result="shadowMatrixInner1"></feColorMatrix>
            <feOffset dx="60" dy="0" in="SourceAlpha" result="shadowOffsetInner2"></feOffset>
            <feComposite in="shadowOffsetInner2" in2="SourceAlpha" operator="arithmetic" k2="-1" k3="1" result="shadowInnerInner2"></feComposite>
            <feColorMatrix values="0 0 0 0 1   0 0 0 0 1   0 0 0 0 1  0 0 0 0.2 0" type="matrix" in="shadowInnerInner2" result="shadowMatrixInner2"></feColorMatrix>
            <feMerge>
                <feMergeNode in="shadowMatrixInner1"></feMergeNode>
                <feMergeNode in="shadowMatrixInner2"></feMergeNode>
            </feMerge>
        </filter>
        <rect id="path-11" x="0" y="31.2663725" width="125.192581" height="15.6331862" rx="2"></rect>
        <filter x="-24.0%" y="-191.9%" width="147.9%" height="483.8%" filterUnits="objectBoundingBox" id="filter-12">
            <feOffset dx="-20" dy="0" in="SourceAlpha" result="shadowOffsetInner1"></feOffset>
            <feComposite in="shadowOffsetInner1" in2="SourceAlpha" operator="arithmetic" k2="-1" k3="1" result="shadowInnerInner1"></feComposite>
            <feColorMatrix values="0 0 0 0 0   0 0 0 0 0   0 0 0 0 0  0 0 0 0.1 0" type="matrix" in="shadowInnerInner1" result="shadowMatrixInner1"></feColorMatrix>
            <feOffset dx="60" dy="0" in="SourceAlpha" result="shadowOffsetInner2"></feOffset>
            <feComposite in="shadowOffsetInner2" in2="SourceAlpha" operator="arithmetic" k2="-1" k3="1" result="shadowInnerInner2"></feComposite>
            <feColorMatrix values="0 0 0 0 1   0 0 0 0 1   0 0 0 0 1  0 0 0 0.2 0" type="matrix" in="shadowInnerInner2" result="shadowMatrixInner2"></feColorMatrix>
            <feMerge>
                <feMergeNode in="shadowMatrixInner1"></feMergeNode>
                <feMergeNode in="shadowMatrixInner2"></feMergeNode>
            </feMerge>
        </filter>
        <rect id="path-13" x="22.9519732" y="46.8995587" width="125.192581" height="15.6331862" rx="2"></rect>
        <filter x="-28.0%" y="-223.9%" width="155.9%" height="547.8%" filterUnits="objectBoundingBox" id="filter-14">
            <feOffset dx="-20" dy="0" in="SourceAlpha" result="shadowOffsetInner1"></feOffset>
            <feComposite in="shadowOffsetInner1" in2="SourceAlpha" operator="arithmetic" k2="-1" k3="1" result="shadowInnerInner1"></feComposite>
            <feColorMatrix values="0 0 0 0 0   0 0 0 0 0   0 0 0 0 0  0 0 0 0.1 0" type="matrix" in="shadowInnerInner1" result="shadowMatrixInner1"></feColorMatrix>
            <feOffset dx="70" dy="0" in="SourceAlpha" result="shadowOffsetInner2"></feOffset>
            <feComposite in="shadowOffsetInner2" in2="SourceAlpha" operator="arithmetic" k2="-1" k3="1" result="shadowInnerInner2"></feComposite>
            <feColorMatrix values="0 0 0 0 1   0 0 0 0 1   0 0 0 0 1  0 0 0 0.2 0" type="matrix" in="shadowInnerInner2" result="shadowMatrixInner2"></feColorMatrix>
            <feMerge>
                <feMergeNode in="shadowMatrixInner1"></feMergeNode>
                <feMergeNode in="shadowMatrixInner2"></feMergeNode>
            </feMerge>
        </filter>
        <rect id="path-15" x="12.5192581" y="62.532745" width="125.192581" height="15.6331862" rx="2"></rect>
        <filter x="-24.0%" y="-191.9%" width="147.9%" height="483.8%" filterUnits="objectBoundingBox" id="filter-16">
            <feOffset dx="-20" dy="0" in="SourceAlpha" result="shadowOffsetInner1"></feOffset>
            <feComposite in="shadowOffsetInner1" in2="SourceAlpha" operator="arithmetic" k2="-1" k3="1" result="shadowInnerInner1"></feComposite>
            <feColorMatrix values="0 0 0 0 0   0 0 0 0 0   0 0 0 0 0  0 0 0 0.1 0" type="matrix" in="shadowInnerInner1" result="shadowMatrixInner1"></feColorMatrix>
            <feOffset dx="60" dy="0" in="SourceAlpha" result="shadowOffsetInner2"></feOffset>
            <feComposite in="shadowOffsetInner2" in2="SourceAlpha" operator="arithmetic" k2="-1" k3="1" result="shadowInnerInner2"></feComposite>
            <feColorMatrix values="0 0 0 0 1   0 0 0 0 1   0 0 0 0 1  0 0 0 0.2 0" type="matrix" in="shadowInnerInner2" result="shadowMatrixInner2"></feColorMatrix>
            <feMerge>
                <feMergeNode in="shadowMatrixInner1"></feMergeNode>
                <feMergeNode in="shadowMatrixInner2"></feMergeNode>
            </feMerge>
        </filter>
        <rect id="path-17" x="29.2116022" y="78.1659312" width="125.192581" height="15.6331862" rx="2"></rect>
        <filter x="-28.0%" y="-223.9%" width="155.9%" height="547.8%" filterUnits="objectBoundingBox" id="filter-18">
            <feOffset dx="-20" dy="0" in="SourceAlpha" result="shadowOffsetInner1"></feOffset>
            <feComposite in="shadowOffsetInner1" in2="SourceAlpha" operator="arithmetic" k2="-1" k3="1" result="shadowInnerInner1"></feComposite>
            <feColorMatrix values="0 0 0 0 0   0 0 0 0 0   0 0 0 0 0  0 0 0 0.1 0" type="matrix" in="shadowInnerInner1" result="shadowMatrixInner1"></feColorMatrix>
            <feOffset dx="70" dy="0" in="SourceAlpha" result="shadowOffsetInner2"></feOffset>
            <feComposite in="shadowOffsetInner2" in2="SourceAlpha" operator="arithmetic" k2="-1" k3="1" result="shadowInnerInner2"></feComposite>
            <feColorMatrix values="0 0 0 0 1   0 0 0 0 1   0 0 0 0 1  0 0 0 0.2 0" type="matrix" in="shadowInnerInner2" result="shadowMatrixInner2"></feColorMatrix>
            <feMerge>
                <feMergeNode in="shadowMatrixInner1"></feMergeNode>
                <feMergeNode in="shadowMatrixInner2"></feMergeNode>
            </feMerge>
        </filter>
        <rect id="path-19" x="14.6058011" y="93.7991174" width="125.192581" height="15.6331862" rx="2"></rect>
        <filter x="-24.0%" y="-191.9%" width="147.9%" height="483.8%" filterUnits="objectBoundingBox" id="filter-20">
            <feOffset dx="-20" dy="0" in="SourceAlpha" result="shadowOffsetInner1"></feOffset>
            <feComposite in="shadowOffsetInner1" in2="SourceAlpha" operator="arithmetic" k2="-1" k3="1" result="shadowInnerInner1"></feComposite>
            <feColorMatrix values="0 0 0 0 0   0 0 0 0 0   0 0 0 0 0  0 0 0 0.1 0" type="matrix" in="shadowInnerInner1" result="shadowMatrixInner1"></feColorMatrix>
            <feOffset dx="60" dy="0" in="SourceAlpha" result="shadowOffsetInner2"></feOffset>
            <feComposite in="shadowOffsetInner2" in2="SourceAlpha" operator="arithmetic" k2="-1" k3="1" result="shadowInnerInner2"></feComposite>
            <feColorMatrix values="0 0 0 0 1   0 0 0 0 1   0 0 0 0 1  0 0 0 0.2 0" type="matrix" in="shadowInnerInner2" result="shadowMatrixInner2"></feColorMatrix>
            <feMerge>
                <feMergeNode in="shadowMatrixInner1"></feMergeNode>
                <feMergeNode in="shadowMatrixInner2"></feMergeNode>
            </feMerge>
        </filter>
        <linearGradient x1="37.6297714%" y1="50%" x2="88.4555893%" y2="123.389%" id="linearGradient-21">
            <stop stop-color="#ABF9DC" offset="0%"></stop>
            <stop stop-color="#27D694" offset="100%"></stop>
        </linearGradient>
        <linearGradient x1="-4.875%" y1="-5.48260195%" x2="77.6028534%" y2="84.7043501%" id="linearGradient-22">
            <stop stop-color="#ABF9DC" offset="0%"></stop>
            <stop stop-color="#27D694" offset="100%"></stop>
        </linearGradient>
    </defs>
    <g id="Landing-page" stroke="none" stroke-width="1" fill="none" fill-rule="evenodd" transform="translate(-59.000000, -916.000000)">
        <g id="What-is-mining" transform="translate(59.000000, 916.000000)">
            <g id="illustration">
                <mask id="mask-2" fill="white">
                    <use xlink:href="#path-1"></use>
                </mask>
                <use id="Rectangle-5" fill="#F4F4F4" xlink:href="#path-1"></use>
                <path d="M1,556 L627,556 C632.522847,556 637,560.477153 637,566 L637,766 C637,771.522847 632.522847,776 627,776 L1,776 L1,556 Z" id="Rectangle-5-Copy" fill="#DAEFE7" mask="url(#mask-2)"></path>
                <g mask="url(#mask-2)">
                    <g transform="translate(-55.000000, 53.000000)">
                        <g>
                            <g id="Combined-Shape" opacity="0.200000003">
                                <use fill="url(#radialGradient-3)" xlink:href="#path-5"></use>
                                <use fill="url(#linearGradient-4)" xlink:href="#path-5"></use>
                            </g>
                            <g id="Group-6" transform="translate(0.000000, 230.882682)">
                                <path d="M572.300026,113.037278 C572.185344,113.171325 572.070692,113.305398 571.956071,113.439498 C563.673813,114.674547 555.392806,115.923616 547.106792,117.134449 C545.25864,117.404655 543.39171,117.541883 541.533126,117.740714 C541.22461,117.714994 540.916095,117.689273 540.352059,117.64238 C538.38632,118.170493 536.336316,118.190552 534.334891,118.396073 C530.571505,118.783548 526.91387,120.013779 523.081663,119.799826 C523.34604,118.671096 524.434182,118.740588 525.198777,118.364486 C526.64152,117.655239 528.293247,117.555422 529.740606,116.844912 C535.214889,115.215834 540.54859,113.157586 545.993918,111.441327 C547.611653,110.812102 549.27555,110.269637 550.952456,109.884269 C557.301281,108.425343 562.528812,105.037047 567.229267,100.680064 C571.106797,97.7049338 574.764012,94.4568865 578.602095,91.4329006 C579.357038,90.8382115 580.032249,90.0683165 581.103605,90.0257785 C587.57161,84.7868703 594.040034,79.5483833 600.507619,74.3090539 C601.323831,73.6478202 602.243275,73.07798 602.931495,72.3017674 C607.876604,66.7221344 614.296349,65.0989531 621.440404,64.6946318 C627.845042,64.3324274 634.210233,63.270663 640.59305,62.5171935 C638.002575,66.9074483 635.413778,71.2985454 632.821625,75.6879578 C627.10101,85.3748208 621.366127,95.0532604 615.67069,104.754864 C614.831398,106.184308 614.020222,107.147098 612.098663,107.426333 C603.498856,108.67678 594.901148,109.938599 586.283296,111.064381 C581.615872,111.673701 576.960222,112.373615 572.300026,113.037278 Z M480.721806,146.272714 C481.425393,147.730689 481.598635,146.202989 481.741731,146.018446 C485.878751,140.665859 490.005157,135.30534 494.050885,129.886786 C494.933234,128.704792 495.921313,127.921527 497.358209,127.516952 C500.059183,126.756233 502.723215,125.869006 505.402958,125.034387 C502.975861,129.178257 500.129244,133.048236 497.390904,136.991697 C488.321135,150.052091 479.253913,163.114155 470.270765,176.231331 C468.146418,179.333076 466.063683,182.458619 463.806007,185.467674 C465.068386,181.057009 466.324397,176.645092 467.596967,172.237768 C467.920523,171.118401 468.295883,170.01323 468.647039,168.901378 C469.547647,168.04463 470.531903,168.581141 471.422745,168.83875 C472.739475,169.219527 473.346249,168.810776 473.727553,167.542356 C475.645113,161.163927 477.514267,154.770884 479.440744,148.39496 C479.680651,147.602511 479.515051,146.521555 480.721806,146.272714 Z M241.879935,235.702301 C243.657101,234.762094 245.560459,235.496881 247.395481,235.293148 C248.15347,235.209209 248.928648,235.27965 250.208593,235.27965 C245.221293,232.240113 240.462479,229.679325 236.077209,226.583266 C230.216628,222.446188 223.463481,220.774568 216.841557,218.650773 C208.609744,216.010264 200.390927,213.327996 192.158695,210.686644 C184.33187,208.17563 176.495821,205.693299 168.662707,203.2 C167.924422,202.965054 167.242735,202.716188 166.872964,201.904211 C162.518299,192.336374 158.150638,182.774864 153.76998,173.218416 C150.878469,166.9103 147.939165,160.624117 145.059812,154.310518 C139.246186,141.563103 133.436752,128.814002 127.675531,116.042123 C126.130625,112.616632 126.213635,112.579091 122.444651,112.571921 C114.552005,112.557579 106.646362,112.820786 98.7692276,112.461407 C87.6714776,111.955239 76.5783392,112.298168 65.4847817,112.127758 C64.4647663,112.112151 63.9465835,111.8152 63.4061808,110.858121 C58.8628573,102.810474 54.1962767,94.8336916 49.6127059,86.8088229 C44.6107319,78.0533853 39.6632593,69.2663123 34.6805704,60.4999077 C33.1931004,57.883442 31.6662217,55.2897538 30.1577897,52.6850986 C30.3120707,51.8811354 30.9862115,51.596416 31.5957891,51.2749995 C41.0425648,46.2896684 50.4025575,41.139411 59.874907,36.2030095 C62.0428064,35.0729899 64.134823,33.808414 66.3253615,32.7180442 C67.862302,31.9528872 68.9468806,32.2249524 69.8784359,33.6544546 C71.7142957,36.4725438 73.7664844,39.1370955 75.7385979,41.8577475 C82.4234086,51.5968378 89.4130081,61.1186978 96.2038869,70.7822848 C99.3385579,75.2424668 102.46694,79.7068668 105.690491,84.1037778 C107.226173,86.1680988 108.671719,88.2994871 110.098818,90.4363588 C111.133926,91.9869196 112.388298,92.8904291 114.220804,93.2675241 C115.847881,93.6028603 117.48502,93.8808308 119.115871,94.2064654 C125.557102,95.0454385 131.922032,96.3336356 138.325531,97.3830902 C141.635864,97.9255333 145.024596,97.8268306 148.28462,98.7012355 C149.417412,99.0078888 150.569907,99.3280399 151.727434,99.395529 C154.272232,99.5427394 155.681723,100.95326 156.652267,103.185882 C157.479851,105.091182 158.244129,107.031914 159.237312,108.862132 C162.259207,115.6258 165.541452,122.269252 168.58934,129.023218 C171.397421,135.246551 175.651887,140.574811 179.339538,146.251483 C180.402735,147.888092 181.359445,149.606532 182.637713,151.097618 C185.588337,155.61854 188.5398,160.139884 191.639254,164.561681 C195.809453,170.809901 199.938984,177.08596 204.229924,183.252349 C204.550644,183.71254 204.899034,184.159655 205.156868,184.654434 C205.905634,186.088154 206.986439,186.393964 208.477263,185.87008 C213.285128,184.181589 218.190677,182.800172 223.040047,181.236958 C235.314189,177.470647 247.568208,173.643175 259.828516,169.837637 C261.928917,169.185524 263.582826,169.462229 265.199003,170.951628 C267.975223,173.51115 270.996698,175.783843 273.863474,178.237913 C277.581729,181.668887 281.57375,184.780132 285.379627,188.110716 C290.970636,192.63206 296.25476,197.522063 301.891466,201.991103 C303.003714,202.846948 304.018699,203.814994 305.034102,204.774604 C305.656677,205.362602 306.276316,206.115527 304.95822,206.711118 C303.798178,207.065857 302.605854,206.969263 301.42485,206.970107 C288.389364,206.978965 275.353878,206.967998 262.318393,206.979387 C259.053338,206.982339 259.055853,207.016084 259.010994,210.234889 C258.978713,212.547233 259.140121,214.862528 258.910795,217.167701 C259.041599,219.617553 259.04118,219.620506 261.488713,219.857139 C262.186332,219.924206 262.887304,219.9647 263.446153,220.479304 C263.693925,220.78427 263.805444,221.144914 263.893904,221.519057 C264.12281,225.108208 264.097236,228.696095 263.921154,232.285246 C264.01213,233.39291 264.118617,234.502261 263.548029,235.533156 C262.807229,236.484752 261.729358,236.484752 260.691315,236.49361 C255.331309,236.538743 249.970883,236.524823 244.610876,236.502467 C243.631528,236.498671 242.647986,236.459865 241.879935,235.702301 Z M396.489479,191.635361 C400.513908,189.26772 404.505553,186.849179 408.332439,184.172805 C411.720525,182.092618 415.151902,180.07835 418.474841,177.900119 C419.788297,177.039424 420.952124,176.949308 422.40386,177.395718 C426.479146,178.649838 430.590999,179.785054 434.688141,180.967415 C433.31206,185.740246 431.962037,190.520171 430.556114,195.283824 C428.362957,202.712586 426.345489,210.193499 423.841306,217.530059 C423.362998,218.34069 422.565258,218.535525 421.707834,218.648588 C410.413794,220.138011 399.107565,221.533147 387.797132,222.894071 C387.105309,222.977095 386.404659,223.073887 385.73217,222.776002 C384.816323,221.555259 383.640727,220.966999 382.055333,221.051274 C381.311392,221.090909 380.345529,221.151821 380.121926,220.035796 C380.105114,219.057032 380.088722,218.078268 380.07149,217.099503 C379.367057,216.301806 379.423378,215.318453 379.409087,214.360131 C379.382608,212.504401 379.364115,210.646585 379.406986,208.792106 C379.441871,207.268471 378.916069,206.483707 377.252498,206.543368 C376.251749,206.579665 375.1392,206.707747 374.372562,205.759439 C375.904997,204.699319 377.437853,203.639617 378.970708,202.579498 C384.93611,199.12879 390.716577,195.388125 396.489479,191.635361 Z" id="Combined-Shape" fill="#538673"></path>
                                <path d="M386.296565,232.356096 C386.088923,231.909304 386.04971,231.202775 385.752222,230.735784 C385.643148,230.76097 385.534486,230.785744 385.425412,230.808866 C384.691227,227.736931 384.331777,224.674904 385.683637,221.661187 C393.409731,220.691297 401.13913,219.746595 408.861092,218.742022 C413.663252,218.117313 418.628758,217.405654 423.424308,216.730571 C422.126157,221.891906 420.522596,227.868984 418.832509,232.951515 C419.053279,233.098723 419.164402,233.403173 419.032713,234.001423 C416.644405,242.287875 414.274956,250.580187 411.861923,258.859522 C408.707965,269.679713 405.522996,280.491113 402.337608,291.301675 C402.084068,292.161464 401.719892,292.988602 401.407262,293.83081 C399.027336,293.198317 396.64699,292.566242 394.266645,291.934587 C394.064232,291.482507 393.8614,291.02959 393.658987,290.576674 C392.733669,288.510084 393.34468,286.325451 393.172441,284.200677 C393.143944,283.855757 393.169394,285.590558 393.167831,285.243126 C393.153582,282.076894 393.153163,284.160801 389.897371,284.150336 C389.341677,284.148662 388.784308,285.224521 388.230291,285.124059 C385.089744,285.29903 381.949616,289.415356 378.810326,284.180056 C378.245721,283.238481 376.686035,285.333355 375.880573,284.438405 C375.839504,280.072488 375.82777,270.496386 375.740183,266.131306 C375.715458,264.894366 376.275342,264.601352 377.374994,264.617258 C380.220932,264.65828 383.067288,264.63149 385.913645,264.629397 C388.728571,264.627304 388.728571,264.626049 388.464134,261.690043 C388.288542,261.483258 388.136418,261.260567 388.004409,261.023644 C387.666216,257.43589 387.078254,256.964787 388.38451,253.434799 L388.38451,252.392845 C387.725725,251.793421 386.923615,252.104017 386.195682,252.097738 C378.756265,252.032856 371.316429,252.002299 363.877431,251.962951 C363.898385,251.007724 364.199699,247.9238 363.424411,247.097499 C363.386275,246.974433 363.346882,246.850948 363.307489,246.727464 C362.67301,243.553279 363.022937,240.354816 363.08957,237.164724 C363.100885,236.613438 363.286116,235.017688 363.869049,234.738487 C370.215938,234.689511 376.561989,234.652675 382.908459,234.572724 C383.629687,234.563934 384.442692,234.910947 385.080943,234.250408 C385.144642,234.109343 385.197027,235.006044 385.238934,234.857025 C385.360047,234.024446 385.481579,233.191447 385.602691,232.358867 C385.833989,232.357537 386.06528,232.35662 386.296565,232.356096 Z M671.790764,328.896288 C670.984018,329.660386 669.994874,329.587635 669.020405,329.456851 C659.541143,328.184757 650.03253,327.152784 640.537753,326.009792 C635.548006,325.408859 630.557,324.820962 625.569769,324.19732 C624.144965,324.019017 622.797314,324.293621 621.479853,324.839045 C607.602485,330.582601 593.727633,336.332887 579.861166,342.102516 C577.891265,342.922543 576.040446,343.010013 573.969491,342.428845 C560.655671,338.693725 547.364912,334.878284 534.061994,331.105316 C513.302129,325.217939 492.470982,319.588766 471.741307,313.589529 C459.263584,309.978464 446.734286,306.542339 434.226373,303.033882 C432.693388,302.604104 431.080316,302.3295 429.77208,301.296686 C429.237883,300.407271 429.575844,299.524585 429.833299,298.662084 C435.675915,279.076043 441.366743,259.445846 447.104534,239.829106 C452.173949,222.498771 457.358255,205.200396 462.236047,187.81371 C462.46415,187.000411 461.778584,175.354958 462.236047,174.641323 C469.921516,163.563803 478.314355,163.166206 485.907996,152.023084 C492.240782,142.731121 498.668332,133.496349 504.712635,124.003375 C506.083348,121.147997 508.359344,119.88179 511.502465,119.673209 C515.380631,119.415426 519.179129,118.448634 523.045135,118.005399 C526.764384,118.094971 530.289493,116.816149 533.950039,116.447767 C536.292285,116.211852 538.65382,116.072237 540.972165,115.605872 C551.047262,114.115525 561.131164,112.686995 571.208777,111.223141 C578.741199,110.237846 586.267751,109.197883 593.792206,108.143201 C599.596247,107.329482 605.397771,106.4981 611.193426,105.624666 C612.946966,105.360575 614.053935,104.540547 614.948735,103.02623 C622.165839,90.8052968 629.429485,78.6112776 636.574468,66.3474508 C637.559838,64.6560915 638.704964,63.0631355 639.694108,61.3747199 C640.492049,59.6997612 641.531509,58.1623147 642.438469,56.5487529 C645.945968,50.5734858 649.589742,44.6793804 653.036441,38.6654248 C656.678957,32.3789678 655.284763,33.608168 661.696379,32.0555826 C664.196284,31.4500238 666.702898,30.875584 669.226285,30.3747365 C670.116473,30.1976946 671.022175,30.0177091 671.790764,30.7426975 C671.790764,92.5123484 671.790764,138.839587 671.790764,169.724412 C671.790764,205.09594 671.790764,258.153232 671.790764,328.896288 Z M0,0.00475840213 C1.15784843,-0.0539740367 1.43238547,0.943209817 1.87929646,1.66490051 C3.56856116,4.39109975 5.03920524,7.24743995 6.7209023,9.97913216 C11.9383674,19.3425195 17.3248431,28.6083012 22.6865138,37.8888716 C25.2885195,42.7788753 28.2562944,47.4601465 30.8713333,52.3450798 C39.2920109,66.7995977 47.5028968,81.3736933 55.8344445,95.8780705 C58.4587328,100.44737 61.0123897,105.059768 63.7363186,109.573292 C64.4762653,110.799068 65.3587358,111.453153 66.7843945,111.314561 C85.7606641,111.009068 104.308101,112.043012 122.862265,111.690618 C125.856526,111.633575 127.446991,112.828083 128.60484,115.49555 C134.483212,129.041194 140.924952,142.329937 146.953836,155.806707 C152.811187,168.900661 159.083076,181.801938 164.822288,194.949131 C165.695089,196.94857 166.773897,198.848712 167.669822,200.836319 C168.147003,201.895616 168.989954,202.388715 170.039753,202.734349 C181.884366,206.638999 193.77943,210.383509 205.677436,214.118723 C213.497328,216.574077 221.263825,219.200981 229.085398,221.6538 C230.1579,221.990138 231.169021,222.495068 232.1196,223.094223 C237.756228,226.647325 243.512677,230.002257 249.187143,233.491978 C249.605045,233.748879 250.02589,234.005358 250.405953,234.317612 C250.671662,234.536485 251.018091,234.76381 250.971004,235.139444 C250.909201,235.63381 250.449678,235.795641 250.041866,235.854374 C248.580051,236.065642 247.104782,235.920712 245.63582,235.964233 C244.818515,235.987895 243.90157,235.763951 243.470635,236.800853 C243.15826,240.278321 243.447511,243.759168 243.293636,247.231143 C243.259582,249.04551 244.33797,249.389454 245.88429,249.383539 C251.959421,249.360299 258.034972,249.356919 264.110103,249.383539 C265.282246,249.389032 266.504839,249.237764 267.534458,250.046497 C268.181071,250.88354 268.168458,251.880724 268.157948,252.853401 C268.126836,255.716079 268.325697,258.582137 268.042331,261.44059 C268.002391,262.649464 268.383715,266.001823 267.550855,267.099147 C266.532587,267.926894 265.307471,267.751965 264.134487,267.772246 C261.898251,267.810697 259.659912,267.826754 257.425357,267.777739 C255.69447,267.739711 255.09915,267.465928 255.103354,268.097215 C255.107558,268.728503 255.245457,273.575811 255.012542,276.310038 C255.373687,278.914547 255.373687,278.936097 257.9635,278.954266 C261.944497,278.98173 265.925915,278.947082 269.906913,278.97159 C270.947042,278.977928 272.017863,278.897646 272.934808,279.57159 C273.752113,280.922859 273.535174,282.340043 273.201357,283.764833 C272.206213,285.0692 270.663256,285.133848 269.263243,285.406806 C262.022696,286.818919 254.840589,288.508216 247.611393,289.974415 C243.101502,290.612021 238.719841,291.865261 234.272593,292.8016 C222.829905,295.210898 211.376287,297.566533 199.928555,299.950479 C186.695701,302.705833 173.475881,305.523722 160.231675,308.222879 C146.16512,311.089783 132.159106,314.257532 118.048827,316.902604 C115.184477,317.439647 113.121875,318.645141 111.41243,321.099227 C103.581608,332.338672 95.7306051,343.564596 87.8863292,354.794746 C86.3984477,356.924747 84.6755491,357.873762 82.0954054,357.781649 C71.6646793,357.41024 61.2411005,358.080804 50.8183626,358.297565 C44.2433475,358.434467 37.6494133,358.226579 31.0945786,358.671087 C24.0919921,359.145594 17.0986549,358.854467 10.1044768,359.042495 C7.58907841,359.109678 5.09386039,359.597284 2.56248589,359.444327 C1.65310821,359.389397 0.726913554,359.442214 0,358.737425 L0,0.00475840213 Z" id="Combined-Shape" fill="#24503F"></path>
                            </g>
                            <g id="Group-10" transform="translate(179.029248, 221.497207)">
                                <path d="M318.566098,431.925975 C327.488523,431.915235 336.356473,432.582385 345.157798,434.037723 C347.30156,434.392573 349.371573,435.008912 351.24506,436.125512 C353.386308,437.401979 353.690524,438.353339 352.484553,440.528291 C350.314811,444.442791 346.747601,446.672684 342.56274,447.908255 C338.352736,449.152088 333.987692,449.665153 329.594153,449.716377 C324.078868,449.781233 318.557298,449.86757 313.046623,449.696962 C302.749777,449.378465 292.450836,449.012048 282.167818,448.415124 C274.444659,447.966915 266.729043,447.581083 258.992476,447.658745 C255.253463,447.035796 251.478833,447.368751 247.720964,447.243996 C230.139685,446.661118 212.551282,446.699122 194.968327,446.917237 C184.659329,447.045297 174.349493,447.455502 164.040495,447.749213 C156.803832,447.955348 149.558369,448.190813 142.330924,448.572927 C124.623516,449.50859 106.907309,449.490414 89.1961306,449.224793 C80.8666346,449.100038 72.530015,448.489068 64.2068044,447.800024 C58.4593767,447.323724 52.697702,446.923021 46.9519504,446.398801 C39.4144227,445.710996 31.8873708,444.900501 24.4043172,443.754159 C18.7779894,442.892028 13.1579471,441.985695 7.54628541,441.035986 C5.18797956,440.636522 2.87283389,440.029271 0.343144397,439.032883 C1.27087879,438.423153 1.97694584,438.231063 2.72533501,438.192645 C8.42415513,437.89976 14.1259085,437.654794 19.8226334,437.323491 C28.430366,436.822818 37.0339082,436.253571 45.6408027,435.736788 C48.4889557,435.565766 51.3383658,435.595922 54.1948994,435.357979 C58.9094159,434.964711 63.6629023,435.056005 68.3945992,434.831281 C79.5948758,434.299213 90.7955716,433.841089 102.005905,433.516809 C108.82228,433.319349 115.642846,433.05001 122.460898,432.798021 C135.488568,432.317177 148.522105,432.087909 161.555642,431.822288 C168.806133,431.674813 176.059139,431.747518 183.307536,431.528577 C184.115846,431.504204 185.00042,431.797916 185.700202,431.117546 C186.637574,431.05269 187.000874,431.807417 187.46935,432.366336 C196.173879,442.765207 211.527171,442.711505 220.147893,432.248604 C220.83259,431.41828 221.344227,430.32027 222.735409,430.463202 C223.432258,430.345882 224.130363,430.356623 224.828468,430.357036 C243.88306,430.365711 262.937652,430.356623 281.992663,430.366537 C283.24347,430.36695 284.509781,430.252936 285.727485,430.654052 C286.772548,431.098957 286.805651,431.997854 286.701313,432.913275 C286.56848,434.075728 286.355612,435.236942 285.898031,436.317601 C285.318511,437.685776 285.581243,438.479334 287.152609,438.877972 C294.914737,440.847201 302.519729,443.348912 310.223193,445.517667 C313.320669,446.390126 313.604772,446.145987 314.423558,443.134515 C315.289276,439.949956 316.19564,436.775312 317.277997,433.653957 C317.521035,432.952519 317.656382,432.153178 318.566098,431.925975" id="Fill-111" fill="#4F5A5F" opacity="0.104562953"></path>
                                <g id="Group-9" transform="translate(28.051653, 0.000000)">
                                    <path d="M222.922214,312.25421 C221.356248,317.492589 219.780644,322.72885 218.22683,327.971466 C216.35161,334.298791 214.466333,340.62442 212.637626,346.966151 C210.519361,354.311237 208.463114,361.67412 206.367896,369.025562 C205.964776,370.440343 205.50718,371.839024 205.075146,373.244484 C204.378277,373.886835 203.629446,373.538118 202.915395,373.324566 C196.193936,371.314466 189.421353,369.482749 182.733836,367.357822 C181.990871,367.121814 181.011147,367.145965 180.777321,366.07185 C182.626141,362.775353 183.283202,359.055566 184.315306,355.489163 C190.369649,334.572086 196.390048,313.643993 202.500123,292.744712 C206.493609,279.08586 210.30062,265.371502 214.420238,251.748242 C218.376848,238.663947 222.05186,225.49279 225.847977,212.35892 C229.252706,200.580935 232.832177,188.85422 236.029479,177.01395 C236.523951,175.183504 237.232135,173.411955 237.391371,171.496767 C237.664169,171.25525 237.987251,171.15949 238.343019,171.152287 C245.607978,173.098406 252.753929,175.461884 259.98746,177.522407 C260.655835,177.713078 261.3284,177.946968 261.668244,178.660079 C262.01186,179.657503 261.682911,180.59942 261.40299,181.533286 C260.318086,185.150534 259.307772,188.789816 258.215744,192.405369 C257.868776,193.553635 257.054155,194.470976 256.767529,195.63619 C255.375466,200.279251 253.96287,204.915532 252.59595,209.565795 C249.901499,218.732853 247.223392,227.904995 244.554922,237.079679 C241.079793,249.029691 237.621426,260.985212 234.155516,272.938191 C230.923852,284.081451 227.677102,295.219627 224.473094,306.370938 C223.913671,308.318329 223.122936,310.208518 222.922214,312.25421" id="Fill-122" fill="#424647"></path>
                                    <path d="M194.856212,431.066678 C187.882803,441.659396 175.259815,444.525001 164.509002,437.901155 C161.899059,436.292968 159.864583,434.039722 158.13013,431.518091 C154.50994,425.389823 153.877266,418.980005 156.072347,412.191391 C157.436857,407.970696 158.516176,403.657849 159.72347,399.386194 C159.164106,398.47997 159.575578,397.597102 159.834072,396.738864 C161.724045,390.47428 163.417818,384.150669 165.482804,377.939167 C165.804439,376.750119 165.931143,375.472742 166.962577,374.600491 C168.061389,370.961579 169.236054,367.342627 170.220451,363.67314 C170.607768,362.228447 171.169675,361.842856 172.56512,362.338434 C174.284317,362.94952 176.055638,363.413248 177.804499,363.940251 C179.25249,363.320248 180.439868,363.696497 181.414941,364.887668 C189.564287,367.288271 197.712784,369.689298 205.860858,372.089901 C207.525391,372.64026 209.173397,373.258565 210.864203,373.715075 C211.871482,373.987282 212.1304,374.529572 211.825716,375.404797 C210.720548,378.581678 210.286617,381.974711 208.768281,385.014852 C208.458088,385.636554 208.680987,386.259955 208.573351,386.873588 C209.098391,388.356076 208.276719,389.655111 207.902962,390.966886 C205.930355,397.887145 203.998005,404.820568 201.895304,411.703457 C200.329931,417.205351 198.770915,422.710219 196.961456,428.137373 C196.577529,429.2899 196.372429,430.682785 194.856212,431.066678" id="Fill-124" fill="#282C2D"></path>
                                    <path d="M166.232019,378.393751 C164.119851,385.496762 162.008101,392.599772 159.895933,399.703207 C141.69534,394.380503 123.585233,388.781136 105.779258,382.199253 C89.7880221,376.288904 74.1700394,369.537125 59.1205241,361.479137 C41.9362188,352.278905 25.8720918,341.412761 11.3675847,328.266789 C10.3408244,327.336385 8.99024299,326.755519 8.31160097,325.440413 C8.76361007,323.956683 9.74931667,324.746424 10.4778096,325.007835 C12.7127202,325.809439 14.8638478,326.834323 17.0510022,327.758372 C33.4795851,334.701655 50.2110434,340.841215 67.0040823,346.787153 C78.1974865,350.751112 89.483471,354.46171 100.772388,358.153242 C117.176255,363.517466 133.668932,368.588927 150.16119,373.65954 C155.496908,375.300033 160.859856,376.868499 166.232019,378.393751" id="Fill-126" fill="#34373A"></path>
                                    <path d="M166.45029,378.580254 C164.269221,379.371608 162.370797,378.083924 160.452663,377.553974 C153.747583,375.700618 147.11631,373.576193 140.469939,371.512285 C131.905855,368.852446 123.274674,366.417868 114.778525,363.528145 C107.987477,361.217964 101.05259,359.334769 94.2535739,357.047703 C79.5337655,352.096174 64.7594409,347.304345 50.2220522,341.817403 C41.1874506,338.406975 32.091623,335.170537 23.1664732,331.459622 C18.7389145,329.618453 14.2593557,327.891596 9.86199067,325.970158 C9.3340217,325.739854 8.83247214,325.465423 8.36363234,326.05421 C5.5757549,323.159024 2.7882968,320.263418 0,317.367812 C0.419775169,317.016053 0.785453439,317.617868 1.23122867,317.654431 C8.48482617,321.248513 16.0265211,324.174798 23.4990224,327.257001 C35.4913406,332.203066 47.661885,336.697349 59.8848489,341.019325 C70.4672928,344.761339 81.1097047,348.347856 91.7814714,351.844857 C102.645722,355.404478 113.523393,358.923333 124.437128,362.318631 C138.672161,366.747773 152.989388,370.911731 167.270969,375.189579 L166.45029,378.580254 Z" id="Fill-128" fill="#474C4F"></path>
                                    <path d="M200.517373,410.413145 C202.256859,404.416843 203.96369,398.410971 205.753413,392.429649 C206.381805,390.330049 206.595316,388.103956 207.662452,386.136257 C215.954628,388.47511 224.238431,390.841426 232.539399,393.146575 C243.118234,396.084185 253.720096,398.938576 264.287209,401.915714 C266.142242,402.438326 266.974934,402.143733 267.457218,400.158558 C268.781404,394.70692 268.88188,394.666143 274.346502,396.19861 C281.836128,398.299043 289.285983,400.543443 296.780215,402.629728 C298.438482,403.091174 298.323773,403.875508 297.936104,405.193271 C295.440539,413.681548 293.018656,422.191878 290.572909,430.694718 C289.078333,434.844403 287.876811,439.083548 286.775346,443.348075 C286.304367,445.172223 285.675975,446.092618 283.487279,445.381517 C279.408803,444.057096 275.191335,443.155009 271.11872,441.817273 C266.966143,440.452491 262.742395,439.364411 258.529114,438.238466 C256.725575,437.756631 256.270085,437.11044 257.125385,435.364518 C257.943843,433.692244 258.233548,431.818582 258.29174,429.939095 C258.301788,428.268901 257.323406,427.619382 255.805804,427.174579 C243.031156,423.433912 230.223015,419.803509 217.48144,415.951746 C212.878397,414.559918 208.198322,413.43855 203.619142,411.97141 C202.512653,411.616899 201.26508,411.492072 200.517373,410.413145" id="Fill-130" fill="#323538"></path>
                                    <path d="M273.408985,156.629006 C271.315393,163.902559 269.149305,171.156235 267.17682,178.4632 C266.655517,180.393876 266.013946,181.048995 264.120243,180.143501 C263.328651,179.764979 262.37237,179.737066 261.491939,179.550553 C255.377947,177.687546 249.255993,175.845685 243.152896,173.945036 C241.49973,173.430753 239.748085,173.202371 238.222311,172.2973 C237.724057,171.642605 237.944898,170.948999 238.150234,170.279501 C240.499868,162.611776 242.63285,154.879343 244.881073,147.181591 C248.075938,136.243347 251.256554,125.300029 254.420409,114.35248 C257.819353,102.590792 261.275707,90.8460203 264.662917,79.081794 C267.659989,68.6700985 270.729975,58.2803953 273.727466,47.8695457 C276.56823,37.9996237 279.558596,28.1736865 282.330636,18.283041 C283.602464,13.7441542 285.055742,9.25897946 286.268483,4.70148369 C286.640602,3.30200768 286.938549,1.62974169 289.095837,2.2028121 C297.641597,4.70486713 306.182329,7.22383937 314.738984,9.68656189 C315.828523,9.99995316 316.029669,10.5078923 315.690655,11.4996636 C315.398155,12.3544055 315.202038,13.242559 314.963597,14.1159098 C313.950325,17.1462046 313.04056,20.2061046 312.352055,23.3302899 C310.512829,29.5211421 308.649716,35.7052274 306.840662,41.9049611 C304.775147,48.9877731 302.757404,56.0853876 300.718708,63.1762352 C301.143628,64.0064472 300.838138,64.8150897 300.606821,65.6047004 C299.807685,68.3372524 299.107866,71.0989866 298.245873,73.8133526 C296.954349,78.1631896 295.589911,82.4914572 294.445056,86.885279 C293.541158,89.7324451 292.811586,92.6299398 291.968869,95.4940231 C291.681817,96.469723 291.576635,97.5744167 290.55121,98.1631355 C288.031441,106.719013 285.502034,115.271508 282.993579,123.830769 C279.789914,134.760977 276.603011,145.695837 273.408985,156.629006" id="Fill-132" fill="#2B2F30"></path>
                                    <path d="M289.867084,3.12485184 C288.38993,3.09042713 287.985582,4.23064084 287.716016,5.29402866 C285.81436,12.7990362 283.431935,20.1634062 281.250636,27.5865501 C277.518703,40.290949 273.786771,52.9953479 270.064496,65.7026854 C267.110189,75.7887069 264.161761,85.8768275 261.227609,95.9687264 C258.796478,104.330574 256.415314,112.706694 253.965288,121.063084 C251.88896,128.14324 249.729074,135.199467 247.635111,142.275005 C244.707257,152.167912 241.805856,162.068796 238.893118,171.965901 L238.116751,172.040628 C236.492639,172.582188 235.118357,171.550706 233.615171,171.328624 C226.939429,169.38027 228.346881,169.349203 229.700589,164.246789 C230.666743,160.604906 231.810928,157.013401 232.909345,153.409301 C234.384819,148.541563 235.68982,143.623866 237.146399,138.75067 C238.809981,133.157913 240.607926,127.605879 242.074582,121.956027 C243.101619,117.989628 244.544762,114.146235 245.552064,110.173959 C249.48974,96.9158259 253.384588,83.6450985 257.219392,70.3575785 C258.193524,67.5725352 258.884654,64.6989111 259.834012,61.9058913 C260.668743,58.9697151 261.448048,56.0180057 262.285717,53.0826691 C263.018416,50.5629479 263.83635,48.0684156 264.495569,45.5264443 C267.931903,34.2393361 271.209101,22.9056286 274.462365,11.5652041 C275.463369,9.24531418 275.406685,6.52324286 277.145006,4.48252899 C277.218906,4.36624063 277.308761,4.25708909 277.365026,4.13282427 C277.983515,2.7713688 277.635851,0.608908995 278.988299,0.0996751098 C280.088396,-0.31426109 281.731404,0.668942338 283.120801,1.07742096 C285.37516,1.74072643 287.619023,2.44055569 289.867084,3.12485184" id="Fill-134" fill="#424647"></path>
                                    <path d="M233.328653,171.152287 C234.75054,171.302396 236.072521,171.811591 237.396575,172.316581 C238.485998,173.51283 237.583949,174.728421 237.276358,175.814507 C234.590526,185.305033 231.806032,194.767388 229.055946,204.238994 C226.166573,214.191622 223.27264,224.142988 220.400263,234.100662 C217.602504,243.79638 214.860294,253.508077 212.038907,263.196226 C208.769811,274.422051 205.315,285.594475 202.186849,296.860665 C200.472294,303.035331 198.58902,309.157858 196.866589,315.32916 C194.883824,322.433915 192.784157,329.505032 190.735065,336.590866 C188.591457,344.00425 186.445362,351.416792 184.303827,358.830596 C183.821712,360.50072 183.356178,362.17631 182.879867,363.848116 C182.662646,364.610436 182.424283,365.354676 181.405748,365.255024 C180.229686,364.942611 179.05321,364.630199 177.875075,364.316945 C177.16579,362.263769 178.399888,360.522164 178.899828,358.725898 C182.405629,346.133952 186.056519,333.584475 189.660567,321.021121 C189.657665,316.9955 191.563739,313.435764 192.411482,309.614493 C192.858361,307.599159 193.496344,305.603588 194.072146,303.605914 C196.831767,294.656538 199.334785,285.629795 201.953046,276.63795 C205.157473,265.635398 208.272772,254.606356 211.546013,243.623986 C212.988627,238.262517 214.683699,232.974211 216.01024,227.579525 C219.838556,215.345824 223.178538,202.964115 226.821138,190.67407 C228.490922,185.042657 230.031783,179.372981 231.747996,173.755444 C232.051857,172.762704 232.285245,171.696801 233.328653,171.152287" id="Fill-136" fill="#646868"></path>
                                </g>
                            </g>
                            <g id="Group-13" transform="translate(241.830084, 435.486034)">
                                <g id="Rectangle">
                                    <use fill="url(#linearGradient-6)" fill-rule="evenodd" xlink:href="#path-7"></use>
                                    <use fill="black" fill-opacity="1" filter="url(#filter-8)" xlink:href="#path-7"></use>
                                </g>
                                <g id="Rectangle-Copy">
                                    <use fill="url(#linearGradient-6)" fill-rule="evenodd" xlink:href="#path-9"></use>
                                    <use fill="black" fill-opacity="1" filter="url(#filter-10)" xlink:href="#path-9"></use>
                                </g>
                                <g id="Rectangle-Copy-2">
                                    <use fill="url(#linearGradient-6)" fill-rule="evenodd" xlink:href="#path-11"></use>
                                    <use fill="black" fill-opacity="1" filter="url(#filter-12)" xlink:href="#path-11"></use>
                                </g>
                                <g id="Rectangle-Copy-3">
                                    <use fill="url(#linearGradient-6)" fill-rule="evenodd" xlink:href="#path-13"></use>
                                    <use fill="black" fill-opacity="1" filter="url(#filter-14)" xlink:href="#path-13"></use>
                                </g>
                                <g id="Rectangle-Copy-4">
                                    <use fill="url(#linearGradient-6)" fill-rule="evenodd" xlink:href="#path-15"></use>
                                    <use fill="black" fill-opacity="1" filter="url(#filter-16)" xlink:href="#path-15"></use>
                                </g>
                                <g id="Rectangle-Copy-5">
                                    <use fill="url(#linearGradient-6)" fill-rule="evenodd" xlink:href="#path-17"></use>
                                    <use fill="black" fill-opacity="1" filter="url(#filter-18)" xlink:href="#path-17"></use>
                                </g>
                                <g id="Rectangle-Copy-6">
                                    <use fill="url(#linearGradient-6)" fill-rule="evenodd" xlink:href="#path-19"></use>
                                    <use fill="black" fill-opacity="1" filter="url(#filter-20)" xlink:href="#path-19"></use>
                                </g>
                            </g>
                            <g id="Group-5" transform="translate(197.775766, 46.927374)">
                                <ellipse id="Oval-3" fill="url(#linearGradient-21)" cx="139.66156" cy="139.843575" rx="139.66156" ry="139.843575"></ellipse>
                                <path d="M144.55549,20.9796463 C150.738696,20.9391751 156.807155,21.8717006 162.88827,22.9041396 C173.220049,24.6583164 183.080188,27.92595 192.434516,32.4764387 C201.741597,37.0033191 210.523039,42.4580878 218.374701,49.3500082 C227.064178,56.9779999 234.776627,65.4339664 240.974597,75.1753173 C247.08693,84.7826071 252.011726,94.9581811 255.177787,105.979014 C257.662122,114.627219 259.115431,123.377867 259.803063,132.343097 C260.66872,143.619406 259.696754,154.706848 257.341508,165.698593 C255.003559,176.608551 251.247737,187.022737 245.791397,196.791069 C242.554042,203.260571 238.499965,209.195514 233.908439,214.767059 C227.198752,222.907687 219.720857,230.231723 211.171016,236.47273 C202.288327,242.957408 192.726865,248.16682 182.441913,251.986718 C173.966319,255.133781 165.186564,257.080618 156.224988,258.462543 C150.623106,259.326773 145.029661,259.22433 139.458153,259.362607 C132.204267,259.542198 124.96388,258.652674 117.785084,257.273699 C104.216794,254.666253 91.5179575,249.771337 79.5434551,243.023174 C72.7624738,239.202011 66.4476482,234.646042 60.5686041,229.4927 C52.0208723,222.000878 44.5999291,213.56599 38.4298015,204.018985 C29.6323284,190.406304 23.9524023,175.60225 21.3465717,159.619049 C20.2307514,152.77308 19.4992458,145.878208 19.7089103,138.939072 C20.1851905,123.181413 23.2883943,108.00848 29.7255595,93.5227157 C34.1462327,83.5747926 39.9020936,74.4982666 46.6451074,66.0199567 C49.1703627,62.8450697 52.0073727,59.9180692 54.7022158,56.878508 C55.5472019,56.7634179 56.0125137,56.1057597 56.5478543,55.5640348 C67.3588662,44.6216146 79.9944236,36.3498767 94.0562904,30.249254 C101.347723,27.0857495 108.958925,24.6958366 116.761229,23.2759695 C121.319851,22.4463084 125.910534,21.3746628 130.612588,21.3991142 C132.266702,20.8118592 134.043999,21.7359532 135.685457,20.9868131 L136.945132,20.9813326 C139.482199,20.6562977 142.018423,20.6605135 144.55549,20.9796463" id="Fill-210" fill="url(#linearGradient-22)"></path>
                                <path d="M183.592421,139.55176 C179.495825,136.533478 173.660139,135.326275 173.660139,135.326275 C173.660139,135.326275 178.598502,132.525389 180.616496,129.727248 C182.636736,126.928008 183.646294,122.591081 183.815209,120.34082 C183.983001,118.089461 184.376386,108.649782 176.857167,103.216546 C171.041123,99.0124713 164.376016,97.3435778 155.425794,96.8006385 L155.425794,77.75 L143.418837,77.75 L143.418837,96.5755574 L134.273326,96.5755574 L134.273326,77.75 L122.267492,77.75 L122.267492,96.5755574 L98.6464029,96.5755574 L98.6464029,108.773302 L105.589292,108.773302 C107.482145,108.773302 110.848649,108.979169 112.279091,110.545403 C113.710094,112.108893 113.962624,112.932909 113.962624,115.977542 L113.963185,164.581319 C113.963185,165.733624 113.738714,167.159869 112.728033,168.093681 C111.719036,169.027493 110.709477,169.245437 108.295852,169.245437 L101.115023,169.245437 L98.6464029,183.353077 L122.267492,183.353077 L122.267492,202.125383 L134.273887,202.125383 L134.273887,183.353077 L143.419399,183.353077 L143.419399,202.125383 L155.426355,202.125383 L155.426355,183.043453 C158.530229,182.866133 161.424222,182.636111 163.112244,182.419814 C166.535427,181.981729 174.277434,181.103364 181.516625,176.16311 C188.753572,171.222307 190.379304,163.482814 190.548218,155.689521 C190.718816,147.895678 187.68509,142.570591 183.592421,139.55176 Z M134.273326,109.858632 C134.273326,109.858632 138.088211,109.529794 141.84754,109.583594 C145.607991,109.637943 148.916695,109.748287 153.855619,111.230528 C158.792298,112.713318 161.707616,116.336025 161.822097,120.617505 C161.933771,124.898985 160.024083,127.752024 156.659262,129.563652 C153.293319,131.374731 148.638912,132.362892 144.260604,132.525938 C139.885102,132.691181 134.273326,132.525938 134.273326,132.525938 L134.273326,109.858632 Z M161.148122,166.007564 C158.398913,167.490354 152.899933,168.807353 147.570991,169.190539 C142.240364,169.575373 134.273326,169.41068 134.273326,169.41068 L134.273326,144.216427 C134.273326,144.216427 141.904219,143.83324 147.852141,144.216427 C153.79894,144.602359 158.792298,146.082953 161.035325,147.182556 C163.279475,148.279414 167.208279,150.69382 167.208279,156.45809 C167.208279,162.220164 163.895648,164.525872 161.148122,166.007564 Z" id="Shape" fill="#FFFFFF" fill-rule="nonzero"></path>
                            </g>
                        </g>
                    </g>
                </g>
            </g>
        </g>
    </g>
</svg>